<svg width="120" height="119" viewBox="0 0 120 119" fill="none" xmlns="http://www.w3.org/2000/svg">
<g clip-path="url(#clip0_1_760)">
<path d="M76.4633 45.0108C73.4429 43.5832 70.2521 42.5701 66.9739 42C66.5586 42.7467 66.088 43.7508 65.7602 44.5619C62.2736 44.0277 58.7301 44.0277 55.2435 44.5619C54.8705 43.6865 54.4553 42.8305 53.9963 42C50.7137 42.5701 47.52 43.5877 44.4982 45.0243C38.5099 54.193 36.8839 63.1463 37.694 71.9603C41.2097 74.6435 45.148 76.6846 49.3369 77.9955C50.2795 76.6831 51.1144 75.2929 51.8327 73.8399C50.4719 73.3176 49.1576 72.6726 47.9075 71.9139C48.2339 71.6611 48.5501 71.4052 48.856 71.1493C56.227 74.7303 64.7723 74.7303 72.1433 71.1493C72.4551 71.4141 72.78 71.67 73.1035 71.9184C71.8504 72.6816 70.5333 73.3296 69.1696 73.8533C69.8864 75.3049 70.7213 76.6921 71.6639 78C75.8557 76.6936 79.794 74.6525 83.3068 71.9648C84.2553 61.7441 81.6692 52.8732 76.4618 45.0108H76.4633ZM52.8555 66.5462C50.5855 66.5462 48.722 64.4108 48.722 61.7875C48.722 59.1642 50.5433 57.0123 52.8555 57.0123C55.1678 57.0123 57.0138 59.1478 56.9934 61.774C56.973 64.4003 55.1678 66.5447 52.8555 66.5447V66.5462ZM68.138 66.5462C65.868 66.5462 64.0045 64.4108 64.0045 61.7875C64.0045 59.1642 65.8257 57.0123 68.138 57.0123C70.4503 57.0123 72.2963 59.1478 72.2715 61.774C72.2467 64.4003 70.4503 66.5447 68.138 66.5447V66.5462Z" fill="#EFEBE7"/>
</g>
<defs>
<clipPath id="clip0_1_760">
<rect width="119" height="119" fill="white" transform="translate(0.5)"/>
</clipPath>
</defs>
</svg>
