<svg width="47" height="36" viewBox="0 0 47 36" fill="none" xmlns="http://www.w3.org/2000/svg">
<path id="Vector" d="M39.4633 3.01085C36.4429 1.58324 33.2521 0.570146 29.9739 0C29.5586 0.746726 29.088 1.75084 28.7602 2.56192C25.2736 2.02768 21.7301 2.02768 18.2435 2.56192C17.8705 1.68649 17.4553 0.830527 16.9963 0C13.7137 0.570146 10.52 1.58773 7.49815 3.02432C1.50988 12.193 -0.116134 21.1463 0.693958 29.9603C4.2097 32.6435 8.14797 34.6846 12.3369 35.9955C13.2795 34.6831 14.1144 33.2929 14.8327 31.8399C13.4719 31.3176 12.1576 30.6726 10.9075 29.9139C11.2339 29.6611 11.5501 29.4052 11.856 29.1493C19.227 32.7303 27.7723 32.7303 35.1433 29.1493C35.4551 29.4141 35.78 29.67 36.1035 29.9184C34.8504 30.6816 33.5333 31.3296 32.1696 31.8533C32.8864 33.3049 33.7213 34.6921 34.6639 36C38.8557 34.6936 42.794 32.6525 46.3068 29.9648C47.2553 19.7441 44.6692 10.8732 39.4618 3.01085H39.4633ZM15.8555 24.5462C13.5855 24.5462 11.722 22.4108 11.722 19.7875C11.722 17.1642 13.5433 15.0123 15.8555 15.0123C18.1678 15.0123 20.0138 17.1478 19.9934 19.774C19.973 22.4003 18.1678 24.5447 15.8555 24.5447V24.5462ZM31.138 24.5462C28.868 24.5462 27.0045 22.4108 27.0045 19.7875C27.0045 17.1642 28.8257 15.0123 31.138 15.0123C33.4503 15.0123 35.2963 17.1478 35.2715 19.774C35.2467 22.4003 33.4503 24.5447 31.138 24.5447V24.5462Z" fill="#EFEBE7"/>
</svg>
