<svg width="32" height="32" viewBox="0 0 32 32" fill="none" xmlns="http://www.w3.org/2000/svg">
<g id="linkedin" clip-path="url(#clip0_60_660)">
<path id="Vector" d="M25.3035 31.237L25.2258 19.4991C25.0307 16.925 22.8918 15.6872 20.4533 16.1527C18.3713 16.5494 17.3428 18.1738 17.2099 20.1996L17.2834 31.2901L11.04 31.3314L10.9034 10.72L16.8073 10.6809L16.8265 13.5768C17.301 12.9446 17.8396 12.406 18.4768 11.9371C21.6466 9.60727 26.0799 9.6208 29.0688 12.252C30.3333 13.3648 31.3258 15.7212 31.4912 17.3806C31.6023 21.9424 31.5619 26.5124 31.6178 31.0767L31.5653 31.1945L25.3035 31.2359L25.3035 31.237Z" fill="#EFEBE7"/>
<path id="Vector_2" d="M7.38805 10.7436L0.972778 10.7861L1.10929 31.3965L7.52457 31.354L7.38805 10.7436Z" fill="#EFEBE7"/>
<path id="Vector_3" d="M3.90035 0.387125C6.83262 0.178787 8.78841 3.42643 7.28206 5.95257C6.00334 8.09733 2.93834 8.34229 1.32083 6.44035C-0.645126 4.12919 0.894472 0.600036 3.90035 0.387125Z" fill="#EFEBE7"/>
</g>
<defs>
<clipPath id="clip0_60_660">
<rect width="31" height="31" fill="white" transform="translate(0.417114 0.401367) rotate(-0.379496)"/>
</clipPath>
</defs>
</svg>
