<svg width="43" height="35" viewBox="0 0 43 35" fill="none" xmlns="http://www.w3.org/2000/svg">
<path id="Vector" d="M38.9358 0.307448C33.3954 2.62192 9.63918 12.5447 3.0748 15.2496C-1.32788 16.9831 1.25004 18.606 1.25004 18.606C1.25004 18.606 5.00791 19.9052 8.22932 20.8805C11.4507 21.8545 13.1685 20.7726 13.1685 20.7726L28.307 10.4861C33.6755 6.80449 32.3872 9.83582 31.0989 11.1363C28.307 13.9518 23.6902 18.3902 19.8253 21.9638C18.1076 23.4801 18.9665 24.7793 19.7183 25.4282C22.5103 27.8106 30.1344 32.6834 30.5625 33.0085C32.8312 34.6274 37.292 36.9579 37.9712 32.0331L40.6561 15.035C41.515 9.29618 42.3739 3.99035 42.4809 2.47535C42.8033 -1.20622 38.9371 0.30878 38.9371 0.30878L38.9358 0.307448Z" fill="#EFEBE7"/>
</svg>
