<svg width="120" height="119" viewBox="0 0 120 119" fill="none" xmlns="http://www.w3.org/2000/svg">
<g clip-path="url(#clip0_1_759)">
<path d="M77.9358 44.3074C72.3954 46.6219 48.6392 56.5447 42.0748 59.2496C37.6721 60.9831 40.25 62.606 40.25 62.606C40.25 62.606 44.0079 63.9052 47.2293 64.8805C50.4507 65.8545 52.1685 64.7726 52.1685 64.7726L67.307 54.4861C72.6755 50.8045 71.3872 53.8358 70.0989 55.1363C67.307 57.9518 62.6902 62.3902 58.8253 65.9638C57.1076 67.4801 57.9665 68.7793 58.7183 69.4282C61.5103 71.8106 69.1344 76.6834 69.5625 77.0085C71.8312 78.6274 76.292 80.9579 76.9712 76.0331L79.6561 59.035C80.515 53.2962 81.3739 47.9903 81.4809 46.4753C81.8033 42.7938 77.9371 44.3088 77.9371 44.3088L77.9358 44.3074Z" fill="#EFEBE7"/>
</g>
<defs>
<clipPath id="clip0_1_759">
<rect width="119" height="119" fill="white" transform="translate(0.5)"/>
</clipPath>
</defs>
</svg>
