<svg width="12" height="13" viewBox="0 0 12 13" fill="none" xmlns="http://www.w3.org/2000/svg">
<path d="M11.705 6.43008L10.5383 4.97175C10.484 4.903 10.4149 4.84737 10.3361 4.809C10.2574 4.77062 10.171 4.75049 10.0833 4.75008H6.58334V1.25008C6.58334 1.09537 6.52188 0.946999 6.41249 0.837602C6.30309 0.728206 6.15472 0.666748 6.00001 0.666748C5.8453 0.666748 5.69692 0.728206 5.58753 0.837602C5.47813 0.946999 5.41667 1.09537 5.41667 1.25008V1.83341H1.91667C1.82905 1.83382 1.74265 1.85396 1.66388 1.89233C1.58511 1.93071 1.516 1.98633 1.46167 2.05508L0.295006 3.51341C0.213626 3.6164 0.169357 3.74382 0.169357 3.87508C0.169357 4.00634 0.213626 4.13376 0.295006 4.23675L1.46167 5.69508C1.516 5.76383 1.58511 5.81946 1.66388 5.85783C1.74265 5.89621 1.82905 5.91634 1.91667 5.91675H5.41667V11.1667H4.25001C4.0953 11.1667 3.94692 11.2282 3.83753 11.3376C3.72813 11.447 3.66667 11.5954 3.66667 11.7501C3.66667 11.9048 3.72813 12.0532 3.83753 12.1626C3.94692 12.272 4.0953 12.3334 4.25001 12.3334H7.75001C7.90472 12.3334 8.05309 12.272 8.16249 12.1626C8.27188 12.0532 8.33334 11.9048 8.33334 11.7501C8.33334 11.5954 8.27188 11.447 8.16249 11.3376C8.05309 11.2282 7.90472 11.1667 7.75001 11.1667H6.58334V8.83341H10.0833C10.171 8.83301 10.2574 8.81287 10.3361 8.7745C10.4149 8.73612 10.484 8.6805 10.5383 8.61175L11.705 7.15341C11.7864 7.05043 11.8307 6.92301 11.8307 6.79175C11.8307 6.66049 11.7864 6.53307 11.705 6.43008ZM5.41667 4.75008H2.19667L1.49667 3.87508L2.19667 3.00008H5.41667V4.75008ZM9.80334 7.66675H6.58334V5.91675H9.80334L10.5033 6.79175L9.80334 7.66675Z" fill="#EFEBE7"/>
</svg>
