<svg width="64" height="60" viewBox="0 0 64 60" fill="none" xmlns="http://www.w3.org/2000/svg">
<path d="M25.3333 24.8333C25.3333 24.8333 22 19.8333 15.3333 18.1667M38.6667 24.8333C38.6667 24.8333 42 19.8333 48.6667 18.1667M25.3333 41.5C25.3333 41.5 22 36.5 15.3333 34.8333M38.6667 41.5C38.6667 41.5 40.3333 39.8333 43.6667 38.1667M32 9.31334C32 9.31334 39.5 4.04001 47 2.28001C54.5 0.523342 62 2.28001 62 2.28001V51.1367C62 51.1367 54.5 49.3767 47 51.1367C39.5 52.8933 32 58.1667 32 58.1667C32 58.1667 24.5 52.8933 17 51.1367C9.5 49.3767 2 51.1367 2 51.1367V2.28001C2 2.28001 9.5 0.523342 17 2.28001C24.5 4.04001 32 9.31334 32 9.31334Z" stroke="white" stroke-width="3" stroke-linecap="round" stroke-linejoin="round"/>
</svg>
