<svg width="100" height="100" viewBox="0 0 100 100" fill="none" xmlns="http://www.w3.org/2000/svg">
<g id="Group">
<path id="Vector" d="M49.9967 0.993086C22.9148 1.17246 1.10754 23.3044 1.2872 50.4279C1.46685 77.5514 23.5653 99.3925 50.6473 99.2132C77.7292 99.0338 99.5364 76.9018 99.3568 49.7783C99.1771 22.6549 77.0786 0.813708 49.9967 0.993086ZM50.6095 93.5096C26.6727 93.6682 7.14078 74.3637 6.98199 50.3902C6.8232 26.4167 26.1014 6.85514 50.0345 6.69662C73.9675 6.5381 93.5032 25.8426 93.662 49.8161C93.8208 73.7895 74.5462 93.3511 50.6095 93.5096Z" fill="#EFEBE7"/>
<path id="Vector_2" d="M56.1923 76.5628C56.1871 77.465 55.8131 78.3137 55.151 78.9556C54.5777 79.5037 53.8578 79.829 53.0876 79.8863L53.0546 73.2172C53.8329 73.2717 54.5646 73.5912 55.1452 74.1465C55.812 74.7871 56.1938 75.6681 56.1923 76.5628Z" fill="#EFEBE7"/>
<path id="Vector_3" d="M36.5213 33.4111L47.3492 33.3879L47.3145 28.1503C46.346 28.0411 45.435 27.6222 44.7233 26.9559C44.1241 26.4006 43.6801 25.6804 43.4516 24.9027L35.0626 29.5437C36.0062 30.3949 36.5427 31.5805 36.5511 32.8554C36.5524 33.0456 36.5424 33.232 36.5213 33.4111Z" fill="#EFEBE7"/>
<path id="Vector_4" d="M28.521 50.1466L31.7294 48.4329C32.0447 48.263 32.3192 48.1196 32.5899 47.9686C32.6455 47.9422 32.6641 47.9346 32.6827 47.927C32.9312 47.7912 33.1834 47.659 33.4394 47.5269C33.4801 47.5005 33.5506 47.459 33.6211 47.4287L36.9556 45.6508C37.0446 45.598 37.1485 45.5451 37.2523 45.4885L37.3154 45.4545C37.486 45.3677 37.6604 45.277 37.8235 45.1865L38.2724 44.9486C38.4207 44.8694 38.5654 44.7939 38.7212 44.7071C38.8807 44.624 39.0402 44.5409 39.1922 44.4579L39.6411 44.2201C39.8005 44.1333 39.9638 44.0502 40.1158 43.9672C40.2308 43.9105 40.3347 43.8539 40.4385 43.7973L40.6388 43.6916C40.7687 43.6236 40.8985 43.5556 41.0209 43.4914L41.4326 43.2725L35.6752 35.5378C34.8415 36.6841 33.4987 37.3827 32.0806 37.3921C31.1538 37.3982 30.2437 37.1134 29.4808 36.5817L25.2399 46.5001C26.9663 46.9621 28.2451 48.3926 28.5136 50.1541L28.521 50.1466Z" fill="#EFEBE7"/>
<path id="Vector_5" d="M32.0783 35.9083C33.7421 35.8973 35.0879 34.5314 35.0769 32.8651C35.0659 31.1988 33.702 29.8508 32.0383 29.8618C30.3745 29.8729 29.0286 31.2388 29.0397 32.9051C29.0507 34.5714 30.4145 35.9194 32.0783 35.9083Z" fill="#EFEBE7"/>
<path id="Vector_6" d="M29.3955 62.9802C31.0742 62.969 32.5952 63.8872 33.3791 65.3471L40.8248 57.6629C40.7129 57.6152 40.6009 57.5712 40.4926 57.5197C40.4516 57.5088 40.3881 57.4832 40.3209 57.4538C40.0522 57.3437 39.832 57.2557 39.6155 57.1639L39.5483 57.1346C39.5035 57.1125 39.4624 57.0941 39.414 57.0795C39.1788 56.9842 38.9549 56.8925 38.7346 56.797L38.6376 56.7566C38.5966 56.742 38.5518 56.7236 38.5107 56.7053C38.298 56.6209 38.0815 56.5292 37.865 56.4374L37.7605 56.3971C37.7194 56.3824 37.6747 56.3641 37.6336 56.3457L36.7863 55.9972C36.5586 55.898 36.3421 55.81 36.1182 55.722L35.8868 55.6192C35.6815 55.5348 35.4613 55.4468 35.2486 55.3624L35.144 55.3184C35.103 55.3 35.0619 55.2854 35.0208 55.2633C34.8902 55.212 34.7372 55.1496 34.5879 55.0872L28.2541 52.4935C27.6572 53.9775 26.2907 55.049 24.7103 55.2757L26.5548 64.013C27.3544 63.3441 28.3458 62.9759 29.3955 62.969L29.3955 62.9802Z" fill="#EFEBE7"/>
<path id="Vector_7" d="M27.1002 50.8124C27.0892 49.146 25.7254 47.7981 24.0616 47.8091C22.3978 47.8201 21.052 49.186 21.063 50.8523C21.074 52.5187 22.4379 53.8666 24.1016 53.8556C25.7654 53.8446 27.1113 52.4787 27.1002 50.8124Z" fill="#EFEBE7"/>
<path id="Vector_8" d="M46.0274 74.4153C45.4209 75.0083 45.0801 75.8158 45.1004 76.6321C45.1133 77.4521 45.4608 78.2253 46.0788 78.8027C46.532 79.2247 47.0735 79.4933 47.6548 79.5901L47.615 73.5809C47.0128 73.693 46.4712 73.9761 46.0274 74.4115L46.0274 74.4153Z" fill="#EFEBE7"/>
<path id="Vector_9" d="M47.3006 26.6591L47.2497 20.6537C46.6586 20.7657 46.117 21.0489 45.6732 21.4843C45.0666 22.0699 44.7295 22.8773 44.7462 23.7011C44.7591 24.5249 45.1066 25.2943 45.7283 25.8717C46.1815 26.29 46.7193 26.5586 47.3043 26.6591L47.3006 26.6591Z" fill="#EFEBE7"/>
<path id="Vector_10" d="M47.5734 67.8403L33.9084 67.7482C33.8346 68.9752 33.2652 70.1122 32.3287 70.9088L43.7388 75.6125C43.9341 74.7537 44.3718 73.9642 45.0006 73.3561C45.7069 72.6618 46.6234 72.2195 47.6015 72.09L47.5734 67.8403Z" fill="#EFEBE7"/>
<path id="Vector_11" d="M29.445 70.5065C31.1121 70.4954 32.4547 69.1329 32.4436 67.4632C32.4325 65.7935 31.0721 64.4489 29.405 64.46C27.7378 64.471 26.3953 65.8335 26.4064 67.5032C26.4174 69.1729 27.7779 70.5175 29.445 70.5065Z" fill="#EFEBE7"/>
<path id="Vector_12" d="M47.4745 52.9253L43.3967 57.1276C43.8222 57.3037 44.2328 57.4725 44.6359 57.6413C44.7135 57.5513 44.7947 57.4613 44.8798 57.3787C45.5936 56.6769 46.5138 56.2346 47.4956 56.1088L47.4745 52.9215L47.4745 52.9253Z" fill="#EFEBE7"/>
<path id="Vector_13" d="M33.0169 52.8573C33.2445 52.949 33.4759 53.0444 33.7074 53.1398C33.9351 53.2352 34.1627 53.3269 34.3941 53.4186L34.48 53.4553C34.5136 53.47 34.5471 53.481 34.577 53.4957L35.4989 53.8735C36.1259 54.1303 36.7567 54.3871 37.3875 54.6476L37.604 54.7394C38.0369 54.9155 38.4885 55.0989 38.9364 55.286L41.8701 56.4931C41.8925 56.5004 41.9149 56.5115 41.9373 56.5188L46.4328 51.8775L31.2552 52.1309L32.8452 52.7839C32.8899 52.7985 32.9571 52.8242 33.0206 52.8536L33.0169 52.8573Z" fill="#EFEBE7"/>
<path id="Vector_14" d="M39.2406 46.1015L39.2036 46.1241C38.7288 46.377 38.2503 46.6263 37.7755 46.8866L37.5752 46.9886C37.0968 47.249 36.6109 47.5057 36.1249 47.7625C36.0656 47.7927 36.0137 47.8228 35.9655 47.8493L32.8943 49.4838C32.8572 49.5027 32.8312 49.5178 32.8053 49.5366L31.3105 50.3331C31.2549 50.3633 31.1844 50.401 31.1176 50.435L30.6836 50.6653L46.7508 50.3949L42.3341 44.4631C41.3401 44.9879 40.3497 45.5163 39.3631 46.0448C39.2963 46.0788 39.2741 46.0938 39.2444 46.1052L39.2406 46.1015Z" fill="#EFEBE7"/>
<path id="Vector_15" d="M43.3847 39.0137L43.1979 38.9142C42.8432 38.7414 42.4771 38.5537 42.1111 38.366C42.0252 38.3255 41.9431 38.2851 41.8646 38.2371C41.6443 38.1305 41.4127 38.0127 41.1812 37.895L39.0896 36.8203C38.8207 36.6804 38.5555 36.5442 38.2865 36.4043L38.1035 36.3086L42.7568 42.5631C43.1166 42.3743 43.469 42.1856 43.825 41.9931L43.8362 41.9856C43.5456 41.391 43.385 40.7434 43.3732 40.0911C43.3709 39.7482 43.4096 39.4049 43.4855 39.0652C43.4519 39.0505 43.4183 39.0321 43.3847 39.0137Z" fill="#EFEBE7"/>
<path id="Vector_16" d="M36.314 64.5858C36.4068 64.5479 36.4736 64.5214 36.5441 64.4837L38.0619 63.7914C38.2511 63.7007 38.4441 63.6136 38.6371 63.5304C39.0676 63.3299 39.4498 63.1596 39.8321 62.9893L41.6987 62.1345C41.8991 62.0399 42.1032 61.9491 42.3074 61.862L43.5654 61.287C43.5343 61.0934 43.5182 60.8959 43.513 60.6872C43.5017 60.0908 43.6205 59.4861 43.855 58.9216C43.8438 58.9179 43.8326 58.9143 43.8214 58.9069C43.7654 58.8812 43.7393 58.8739 43.7168 58.8628L43.6273 58.8262C43.5713 58.8004 43.5153 58.7784 43.4556 58.7527L43.3063 58.6903C43.2428 58.6647 43.1794 58.639 43.1122 58.6134L42.7539 58.4629C42.6755 58.4298 42.612 58.4004 42.5449 58.3785L42.2911 58.2758L36.0579 64.7068C36.1433 64.669 36.2286 64.6274 36.314 64.5896L36.314 64.5858Z" fill="#EFEBE7"/>
<path id="Vector_17" d="M47.4086 43.0241L47.3613 37.015C46.7665 37.1233 46.2249 37.4102 45.7774 37.8456C45.1709 38.4386 44.8301 39.2461 44.8504 40.0624C44.8633 40.89 45.2108 41.6593 45.8288 42.2331C46.282 42.6551 46.8235 42.9274 47.4048 43.0242L47.4086 43.0241Z" fill="#EFEBE7"/>
<path id="Vector_18" d="M68.393 37.1407C66.9748 37.1501 65.6229 36.4657 64.7667 35.3343L59.1159 43.1445C59.2429 43.2108 59.3737 43.277 59.5044 43.347C59.6836 43.4353 59.833 43.5126 59.9824 43.5899C60.0534 43.6267 60.1356 43.6672 60.214 43.7076C60.2887 43.7482 60.3597 43.785 60.4344 43.8217L61.3756 44.3039C61.5399 44.3923 61.6893 44.4696 61.8424 44.5431C62.0068 44.6315 62.1525 44.7088 62.3019 44.7824L62.7538 45.0142C62.948 45.1173 63.1012 45.1983 63.258 45.2719C63.3701 45.3308 63.4672 45.3823 63.568 45.4338L63.6315 45.467C63.8183 45.5627 64.0088 45.6621 64.1918 45.7578L64.5616 45.9492C64.6512 45.997 64.7446 46.0412 64.8342 46.089C64.9276 46.1369 65.0247 46.1847 65.118 46.2325C65.2002 46.273 65.2936 46.3208 65.3795 46.3687L65.4617 46.4129C65.5812 46.4718 65.7082 46.5381 65.8315 46.6043L66.0705 46.7258C66.1452 46.7663 66.2199 46.8031 66.2946 46.8399L66.3917 46.8914C66.5971 46.9982 66.8026 47.1049 67.0006 47.2117C67.0453 47.2301 67.1126 47.2669 67.1798 47.3037C67.4263 47.4288 67.684 47.5576 67.938 47.6939L68.0052 47.727C68.1957 47.8264 68.3713 47.9184 68.5468 48.0067L72.1175 49.8545C72.3664 48.0858 73.6298 46.6384 75.3463 46.1536L70.9706 36.2923C70.2148 36.8341 69.3123 37.1309 68.3892 37.137L68.393 37.1407Z" fill="#EFEBE7"/>
<path id="Vector_19" d="M47.4188 44.5152C46.4541 44.406 45.543 43.9833 44.8276 43.3133C44.7864 43.2763 44.749 43.2355 44.7078 43.1985C44.3554 43.3873 44.003 43.5723 43.6507 43.761L47.4477 48.8655L47.4189 44.5189L47.4188 44.5152Z" fill="#EFEBE7"/>
<path id="Vector_20" d="M47.5018 57.6077C46.907 57.7198 46.3654 58.003 45.9179 58.4384C45.3113 59.024 44.9705 59.8315 44.9909 60.6552C45.0038 61.479 45.3513 62.2484 45.973 62.8258C46.4262 63.2441 46.9677 63.5126 47.549 63.6132L47.5018 57.6077Z" fill="#EFEBE7"/>
<path id="Vector_21" d="M47.5554 65.1004C46.5869 64.9913 45.6759 64.5723 44.9643 63.906C44.586 63.5544 44.2669 63.1389 44.0294 62.6894L42.8827 63.2115C42.6303 63.3287 42.378 63.446 42.1256 63.5557L41.2016 63.9831C40.901 64.1156 40.6041 64.2555 40.3072 64.3917C40.0066 64.5241 39.7023 64.6641 39.4092 64.8002L39.0826 64.9478C38.8896 65.0348 38.7003 65.1181 38.5111 65.2088L37.3904 65.7232C37.1714 65.8216 36.9487 65.9237 36.7298 66.0258L36.162 66.2831L47.5712 66.3567L47.5629 65.1004L47.5554 65.1004Z" fill="#EFEBE7"/>
<path id="Vector_22" d="M47.3552 34.8607L38.5559 34.8779C38.5895 34.8963 38.6269 34.9147 38.6642 34.9331L41.3348 36.3134C41.3796 36.3355 41.3983 36.3466 41.417 36.3613C41.6634 36.4827 41.9398 36.6263 42.2162 36.7661L42.769 37.0458C42.9595 37.1452 43.1462 37.2409 43.3329 37.3328C43.5197 37.4285 43.7101 37.5242 43.8969 37.6199L44.0351 37.6898C44.2413 37.3529 44.4812 37.0494 44.7475 36.7904C45.465 36.0959 46.3852 35.65 47.3633 35.5204L47.3589 34.8606L47.3552 34.8607Z" fill="#EFEBE7"/>
<path id="Vector_23" d="M56.1111 57.5655C56.5157 57.3913 56.924 57.2172 57.3434 57.0354L53.2065 52.8838L53.2277 56.0711C54.2148 56.1838 55.1408 56.6176 55.86 57.3062C55.9424 57.3802 56.0248 57.4617 56.1111 57.5618L56.1111 57.5655Z" fill="#EFEBE7"/>
<path id="Vector_24" d="M53.3471 73.5429L53.3757 79.5522C53.9632 79.4476 54.5011 79.1719 54.9486 78.744C55.5552 78.1547 55.8962 77.3807 55.9019 76.5605C55.904 75.7441 55.5525 74.9412 54.9419 74.3562C54.4924 73.9267 53.9471 73.647 53.3471 73.5466L53.3471 73.5429Z" fill="#EFEBE7"/>
<path id="Vector_25" d="M64.1428 65.8518C63.8404 65.7159 63.5492 65.591 63.2543 65.4625C62.9519 65.3266 62.6458 65.1907 62.3397 65.0585L61.44 64.6618C61.1413 64.5259 60.8389 64.3937 60.5366 64.2689C60.2379 64.133 59.9392 63.997 59.6444 63.8722L58.6999 63.4535C58.4423 63.3434 58.1772 63.2258 57.9122 63.1083L57.8412 63.0752C57.4866 62.921 57.1357 62.7667 56.7848 62.6125C56.5459 63.0726 56.2397 63.4847 55.8661 63.8413C55.1448 64.5283 54.2579 64.948 53.2872 65.07L53.2956 66.3263L64.7065 66.1016L64.1428 65.8555L64.1428 65.8518Z" fill="#EFEBE7"/>
<path id="Vector_26" d="M53.2851 63.5748C53.8688 63.4666 54.403 63.1909 54.8506 62.7667C55.4646 62.181 55.8019 61.4071 55.8002 60.587C55.8022 59.7631 55.4507 58.9602 54.8439 58.3826C54.3906 57.9495 53.8453 57.6735 53.2491 57.5693L53.2889 63.5748L53.2851 63.5748Z" fill="#EFEBE7"/>
<path id="Vector_27" d="M66.9683 67.5291L53.302 67.8023L53.3301 72.052C54.3136 72.1685 55.2359 72.6023 55.9551 73.2872C56.5881 73.8832 57.04 74.6705 57.2466 75.5229L68.5934 70.6685C67.6502 69.8844 67.062 68.755 66.9683 67.5291Z" fill="#EFEBE7"/>
<path id="Vector_28" d="M71.4347 64.1817C69.771 64.1927 68.4251 65.5586 68.4362 67.2249C68.4472 68.8912 69.811 70.2392 71.4748 70.2282C73.1386 70.2171 74.4844 68.8512 74.4734 67.1849C74.4624 65.5186 73.0985 64.1706 71.4347 64.1817Z" fill="#EFEBE7"/>
<path id="Vector_29" d="M50.0774 13.1383C29.6915 13.2734 13.2788 29.9342 13.414 50.3477C13.5492 70.7611 30.1849 87.2031 50.5671 87.0681C70.9492 86.9331 87.3657 70.2722 87.2305 49.8587C87.0953 29.4453 70.4596 13.0033 50.0774 13.1383ZM48.4394 81.1025C48.3724 81.1104 48.2943 81.1109 48.2049 81.1115C47.0437 81.1192 45.9353 80.6829 45.0776 79.8834C44.3098 79.169 43.8121 78.2142 43.6638 77.1788L30.6376 71.811C30.24 71.9181 29.8421 71.9766 29.4513 71.9792C26.9724 71.9956 24.9417 69.9922 24.9252 67.5095C24.9207 66.8273 25.0689 66.1665 25.3664 65.5494L23.1913 55.2411C21.1078 54.8225 19.6069 53.0094 19.5926 50.8622C19.577 48.4988 21.3694 46.5521 23.7019 46.354L28.3644 35.4412C27.842 34.6953 27.5645 33.8248 27.5585 32.9152C27.5421 30.4325 29.5461 28.3987 32.025 28.3823C32.5498 28.3788 33.0678 28.4686 33.5677 28.6479L43.2809 23.3048C43.3668 22.2194 43.844 21.2059 44.6317 20.4328C45.5304 19.5545 46.7481 19.0692 48.0065 19.1243L48.714 19.1606L48.7885 28.1519L48.781 28.152L48.828 34.1201L49.1464 81.068L48.4394 81.1062L48.4394 81.1025ZM77.5189 54.885L75.4843 65.2212C75.7862 65.838 75.9394 66.4969 75.9439 67.1753C75.9603 69.6543 73.9601 71.6881 71.4812 71.7045C71.0903 71.7071 70.6917 71.6576 70.2927 71.5521L57.3351 77.0919C57.2079 78.1254 56.7267 79.0867 55.9647 79.815C55.1177 80.6258 54.0114 81.0768 52.8464 81.0845C52.7683 81.085 52.6864 81.0856 52.6007 81.0787L51.9082 81.0534L51.8883 76.9267L51.5632 27.8391L51.5205 19.142L52.2162 19.0927C53.4814 19.0358 54.709 19.4899 55.6118 20.3563C56.4134 21.1152 56.904 22.126 57.0042 23.2102L66.7873 28.4242C67.2812 28.2382 67.7979 28.1416 68.3302 28.1381C70.8054 28.1217 72.8324 30.1288 72.8488 32.6115C72.8549 33.5211 72.5889 34.3952 72.0765 35.1479L76.8905 45.998C79.2292 46.1651 81.0435 48.0842 81.0592 50.4514C81.0734 52.6023 79.5929 54.4314 77.5114 54.8776L77.5189 54.885Z" fill="#EFEBE7"/>
<path id="Vector_30" d="M76.5866 53.5079C78.2537 53.4969 79.5963 52.1344 79.5852 50.4647C79.5741 48.795 78.2137 47.4504 76.5466 47.4615C74.8794 47.4725 73.5369 48.835 73.548 50.5047C73.559 52.1744 74.9195 53.519 76.5866 53.5079Z" fill="#EFEBE7"/>
<path id="Vector_31" d="M72.4203 52.212C71.3067 52.6854 70.1858 53.1625 69.0574 53.6397L66.4814 54.7341C66.4368 54.7531 66.4034 54.7682 66.37 54.7834L66.0174 54.9348C65.9061 54.984 65.791 55.0332 65.6759 55.0787L65.4792 55.1658C65.2565 55.2567 65.0449 55.3476 64.8334 55.4385L64.5364 55.5672C64.3397 55.6505 64.1467 55.7301 63.95 55.8208L63.4712 56.0216C63.3413 56.0784 63.2151 56.1314 63.0814 56.1882C63.048 56.2033 62.9998 56.226 62.9478 56.245L61.9976 56.6502C61.7823 56.7485 61.5671 56.8432 61.3444 56.9341C61.2701 56.9607 61.2107 56.9909 61.1476 57.0174L60.4795 57.3015C60.409 57.3355 60.3236 57.3696 60.2457 57.3999C60.1566 57.4415 60.0453 57.4907 59.9339 57.5362L67.4807 65.1211C68.2452 63.6472 69.754 62.7127 71.4326 62.7016C72.4711 62.6947 73.4822 63.0571 74.2831 63.7079L76.0155 54.9506C74.4136 54.7487 73.0518 53.7102 72.4277 52.2157L72.4203 52.212Z" fill="#EFEBE7"/>
<path id="Vector_32" d="M53.1488 42.9863C53.7325 42.8817 54.2667 42.6061 54.7142 42.1781C55.3283 41.5962 55.6656 40.8223 55.6676 39.9947C55.6696 39.1782 55.3181 38.3716 54.7112 37.7866C54.2617 37.3571 53.7127 37.0774 53.1165 36.977L53.1563 42.9862L53.1488 42.9863Z" fill="#EFEBE7"/>
<path id="Vector_33" d="M68.3835 35.6681C70.0473 35.6571 71.3931 34.2912 71.3821 32.6249C71.371 30.9585 70.0072 29.6106 68.3434 29.6216C66.6797 29.6326 65.3338 30.9985 65.3449 32.6648C65.3559 34.3312 66.7197 35.6791 68.3835 35.6681Z" fill="#EFEBE7"/>
<path id="Vector_34" d="M57.7867 42.46L62.3605 36.1443L62.2752 36.1896C62.2492 36.2047 62.2233 36.2161 62.1973 36.2312C61.997 36.3406 61.8153 36.4387 61.6298 36.5369C61.4481 36.635 61.2663 36.7294 61.0846 36.8275L60.9955 36.8729C60.9399 36.9031 60.8843 36.9333 60.8286 36.9597L58.6068 38.1338C58.54 38.1753 58.4547 38.2169 58.3731 38.2584C58.0133 38.4472 57.6498 38.6397 57.2788 38.8248L57.0117 38.9683C57.0922 39.3107 57.1317 39.6572 57.1302 39.9964C57.127 40.6451 56.9787 41.2947 56.6924 41.8931L57.7793 42.4526L57.7867 42.46Z" fill="#EFEBE7"/>
<path id="Vector_35" d="M69.5256 50.1809C69.4658 50.1478 69.4098 50.122 69.3538 50.0926L67.8486 49.3122C67.8075 49.2939 67.7701 49.2717 67.7327 49.2459L64.4833 47.5675C64.0015 47.3209 63.5122 47.0706 63.0191 46.8129L62.8287 46.721C62.3207 46.4559 61.8202 46.1983 61.3197 45.9406L58.2384 44.3543L53.9007 50.3441L63.4001 50.3781L69.9663 50.4017C69.8206 50.3243 69.6713 50.2508 69.5256 50.1735L69.5256 50.1809Z" fill="#EFEBE7"/>
<path id="Vector_36" d="M60.2054 55.805L62.1058 54.9984C62.4436 54.8545 62.7814 54.7068 63.1229 54.5666C63.1451 54.5516 63.1934 54.5326 63.2416 54.5137L63.3196 54.4796C63.9729 54.1994 64.6224 53.9229 65.2683 53.6503L66.1369 53.2829C66.1554 53.2716 66.1925 53.2564 66.2334 53.2412L67.6661 52.6315C67.7255 52.6051 67.7997 52.5747 67.8666 52.5519C68.3751 52.3323 68.8984 52.1089 69.4255 51.8892L54.2458 51.8369L58.8062 56.4182L58.8656 56.3917C59.0623 56.3121 59.2553 56.2288 59.4446 56.1456C59.645 56.0585 59.8417 55.9752 60.0422 55.8918L60.2092 55.8162L60.2054 55.805Z" fill="#EFEBE7"/>
<path id="Vector_37" d="M56.4479 37.6073L56.5963 37.5318C56.8411 37.3997 57.0897 37.2713 57.3382 37.1392L60.5356 35.4479C60.8768 35.2667 61.218 35.0817 61.5667 34.9005L61.7744 34.7873C61.8115 34.7684 61.8486 34.7495 61.8857 34.7269L53.0869 34.8262L53.0913 35.486C54.0785 35.6025 55.0044 36.0325 55.7237 36.7211C55.9971 36.9766 56.241 37.2732 56.448 37.6111L56.4479 37.6073Z" fill="#EFEBE7"/>
<path id="Vector_38" d="M58.5025 61.751C58.7003 61.8317 58.9057 61.9235 59.1073 62.0154L60.9888 62.8491C61.3733 63.0144 61.7578 63.1833 62.1423 63.356L62.3477 63.4478C62.4858 63.5103 62.6239 63.569 62.7658 63.6352L64.2852 64.2999C64.3673 64.3403 64.4382 64.3697 64.5129 64.399C64.6062 64.4394 64.6995 64.4835 64.7929 64.5239L58.4639 58.1724L58.3748 58.2102C58.3229 58.2329 58.2746 58.2519 58.2189 58.2746C58.1707 58.2936 58.1261 58.3125 58.0779 58.3352L57.8923 58.4147C57.8478 58.4337 57.8032 58.4526 57.7587 58.4715L57.3058 58.6609C57.2576 58.6836 57.1945 58.7101 57.1277 58.7404C57.1091 58.7517 57.0683 58.7669 57.0275 58.7858L56.9681 58.8123C56.9681 58.8123 56.9347 58.8274 56.9198 58.835C57.158 59.3926 57.2812 59.9957 57.2814 60.5959C57.2827 60.786 57.2691 60.9874 57.237 61.2001L58.5138 61.7621L58.5025 61.751Z" fill="#EFEBE7"/>
<path id="Vector_39" d="M55.8484 43.1251C55.8077 43.1664 55.767 43.2077 55.7263 43.2452C55.0051 43.9359 54.1145 44.3594 53.1475 44.4776L53.1763 48.8242L56.9128 43.6698C56.558 43.4895 56.2032 43.3054 55.8484 43.1251Z" fill="#EFEBE7"/>
<path id="Vector_40" d="M63.8675 32.6745C63.859 31.3959 64.3797 30.2069 65.312 29.3433L56.8623 24.8139C56.6442 25.6057 56.2171 26.3131 55.6216 26.8837C54.9003 27.5707 54.0134 27.9903 53.039 28.1124L53.0737 33.3499L63.9047 33.2297C63.8811 33.0435 63.865 32.8609 63.8638 32.6745L63.8675 32.6745Z" fill="#EFEBE7"/>
<path id="Vector_41" d="M55.5551 23.6334C55.5571 22.8095 55.2056 22.0066 54.5988 21.429C54.1456 20.9959 53.6003 20.7199 53.004 20.6157L53.0438 26.6212C53.62 26.513 54.1579 26.2373 54.6055 25.8131C55.2195 25.2275 55.5569 24.4535 55.5551 23.6334Z" fill="#EFEBE7"/>
</g>
</svg>
