<svg width="182" height="90" viewBox="0 0 182 90" fill="none" xmlns="http://www.w3.org/2000/svg">
<g id="Group">
<g id="Group_2">
<path id="Vector" d="M9.67994 80.9694L9.697 81.0253C9.72927 82.3685 9.34246 83.4457 8.5366 84.2571C7.73073 85.0685 6.67179 85.4748 5.3565 85.4835C4.04121 85.4922 2.88584 84.9476 2.04063 83.8523C1.19543 82.7571 0.768674 81.3307 0.757058 79.5769L0.742278 77.3455C0.730711 75.5991 1.14187 74.1672 1.96911 73.0534C2.79968 71.9396 3.89764 71.3763 5.263 71.3673C6.62837 71.3582 7.66584 71.7432 8.4689 72.5252C9.27529 73.3035 9.6697 74.3831 9.65879 75.7602L9.64247 75.8162L8.69773 75.8225C8.69041 74.718 8.38426 73.858 7.77592 73.2426C7.16758 72.6271 6.33096 72.323 5.26938 72.33C4.2078 72.337 3.33625 72.8092 2.69478 73.7427C2.0533 74.6761 1.73403 75.8686 1.74364 77.3202L1.75857 79.574C1.76831 81.0442 2.10006 82.2399 2.75718 83.1647C3.41431 84.0895 4.27863 84.5428 5.35022 84.5357C6.42182 84.5286 7.24438 84.2209 7.84463 83.6161C8.44486 83.0076 8.7395 82.1287 8.73188 80.9794L9.67662 80.9732L9.67994 80.9694Z" fill="#EFEBE7"/>
<path id="Vector_2" d="M16.1901 75.9894L15.472 75.9382C14.8377 75.9424 14.3183 76.1473 13.9136 76.5455C13.509 76.9475 13.2222 77.498 13.0532 78.1969L13.0998 85.2345L12.0883 85.2412L12.0208 75.043L12.9054 75.0372L13.0435 76.7342L13.0443 76.8461C13.3038 76.2175 13.6544 75.7226 14.0961 75.3689C14.5378 75.0152 15.0641 74.8363 15.6783 74.8322C15.8018 74.8314 15.9187 74.8418 16.0324 74.8634C16.146 74.8851 16.2363 74.9069 16.3099 74.9325L16.1901 75.9894Z" fill="#EFEBE7"/>
<path id="Vector_3" d="M20.703 82.4226L21.0316 83.6369L21.0816 83.6366L23.7818 74.9687L24.9101 74.9613L21.0259 86.8126C20.7934 87.5045 20.4936 88.0961 20.1195 88.58C19.7455 89.0675 19.1963 89.31 18.4718 89.3148C18.355 89.3156 18.2114 89.3016 18.0409 89.2766C17.8705 89.2479 17.7468 89.2188 17.6698 89.1895L17.7804 88.2484C17.8472 88.2592 17.9575 88.2734 18.1045 88.2873C18.2548 88.3012 18.3617 88.308 18.4285 88.3075C18.8658 88.3047 19.2185 88.1269 19.4799 87.7781C19.7413 87.4294 19.962 86.9801 20.1453 86.4303L20.6169 85.0502L17.025 75.0098L18.1467 75.0023L20.6997 82.4226L20.703 82.4226Z" fill="#EFEBE7"/>
<path id="Vector_4" d="M33.8928 80.2824C33.9029 81.8086 33.6005 83.0271 32.989 83.9417C32.3774 84.8525 31.5291 85.3134 30.4442 85.3206C29.8099 85.3248 29.2515 85.1942 28.769 84.925C28.2865 84.6595 27.8934 84.2777 27.5863 83.7834L27.6213 89.0598L26.6098 89.0665L26.5163 74.9502L27.2907 74.9451L27.4882 76.5372C27.7883 75.968 28.1793 75.5288 28.658 75.2159C29.14 74.903 29.7064 74.7425 30.3574 74.7382C31.4524 74.731 32.3135 75.2141 32.9376 76.1877C33.5617 77.1612 33.8808 78.4615 33.8915 80.0884L33.8928 80.2862L33.8928 80.2824ZM32.8767 80.0914C32.8681 78.7966 32.6307 77.7421 32.1647 76.9279C31.6986 76.1138 31.0215 75.7115 30.1335 75.7174C29.4659 75.7218 28.9196 75.9046 28.498 76.2656C28.0764 76.6266 27.7557 77.0952 27.5425 77.6676L27.5752 82.6043C27.8158 83.155 28.1526 83.5894 28.5886 83.9037C29.0247 84.218 29.5632 84.3749 30.2109 84.3706C31.0922 84.3648 31.7607 83.9909 32.2132 83.2453C32.6656 82.4997 32.8894 81.5168 32.8813 80.2929L32.88 80.0951L32.8767 80.0914Z" fill="#EFEBE7"/>
<path id="Vector_5" d="M37.6821 72.2641L37.6994 74.8761L39.7057 74.8628L39.7119 75.7882L37.7055 75.8015L37.7495 82.4436C37.7539 83.1078 37.8639 83.581 38.0827 83.8594C38.3016 84.1378 38.5896 84.274 38.9501 84.2716C39.0737 84.2708 39.1938 84.2625 39.3072 84.2468C39.4206 84.2312 39.5573 84.2041 39.7139 84.1658L39.8731 85.0043C39.74 85.0799 39.5735 85.1444 39.3735 85.1905C39.1736 85.2403 38.9767 85.264 38.7798 85.2653C38.1388 85.2696 37.6399 85.0453 37.2797 84.5961C36.9195 84.147 36.7379 83.4317 36.7314 82.4503L36.6874 75.8083L35.1117 75.8187L35.1056 74.8933L36.6812 74.8829L36.6639 72.2708L37.6855 72.264L37.6821 72.2641Z" fill="#EFEBE7"/>
<path id="Vector_6" d="M41.1472 79.7981C41.1372 78.298 41.4963 77.0642 42.2277 76.0966C42.9591 75.129 43.9307 74.6449 45.1425 74.6369C46.3543 74.6289 47.3423 75.1037 48.0864 76.0578C48.8305 77.0156 49.2059 78.2446 49.2158 79.7447L49.2179 80.0544C49.2279 81.5619 48.8688 82.7995 48.1407 83.7596C47.4127 84.7234 46.4444 85.2075 45.2292 85.2156C44.0141 85.2236 43.0195 84.7525 42.2787 83.7984C41.5346 82.8443 41.1592 81.6153 41.1492 80.1078L41.1472 79.7981ZM42.1607 80.1049C42.1686 81.2877 42.4422 82.2748 42.9817 83.0773C43.5211 83.8797 44.2682 84.2741 45.223 84.2677C46.1777 84.2614 46.8961 83.8537 47.4283 83.0478C47.9604 82.2383 48.2209 81.2476 48.2131 80.0648L48.211 79.7551C48.2034 78.5946 47.9264 77.6075 47.3836 76.8013C46.8374 75.9952 46.0936 75.5934 45.1489 75.5996C44.2041 75.6059 43.4691 76.0175 42.9403 76.8308C42.4115 77.644 42.151 78.6347 42.1587 79.7951L42.1607 80.1049Z" fill="#EFEBE7"/>
<path id="Vector_7" d="M59.4672 77.0682L62.8935 71.1831L64.1153 71.175L60.0807 77.9672L64.3431 84.8948L63.1379 84.9028L59.4992 78.8779L55.9472 84.9504L54.7254 84.9585L58.8956 77.9751L54.7614 71.237L55.9832 71.2289L59.4705 77.0682L59.4672 77.0682Z" fill="#EFEBE7"/>
<path id="Vector_8" d="M73.4581 80.0207C73.4682 81.5469 73.1658 82.7654 72.5543 83.68C71.9427 84.5908 71.0944 85.0517 70.0095 85.0589C69.3752 85.0631 68.8168 84.9325 68.3343 84.6632C67.8518 84.3978 67.4587 84.016 67.1516 83.5217L67.1866 88.798L66.1751 88.8047L66.0816 74.6885L66.856 74.6834L67.0535 76.2755C67.3536 75.7063 67.7446 75.2671 68.2233 74.9542C68.7053 74.6413 69.2717 74.4808 69.9227 74.4765C71.0177 74.4693 71.8789 74.9524 72.5029 75.9259C73.127 76.8995 73.4461 78.1997 73.4568 79.8267L73.4581 80.0244L73.4581 80.0207ZM72.442 79.8297C72.4334 78.5348 72.1961 77.4804 71.73 76.6662C71.2639 75.8521 70.5868 75.4498 69.6988 75.4557C69.0312 75.4601 68.4849 75.6428 68.0633 76.0039C67.6417 76.3649 67.321 76.8335 67.1078 77.4058L67.1405 82.3426C67.3811 82.8933 67.7179 83.3277 68.1539 83.642C68.59 83.9563 69.1286 84.1132 69.7762 84.1089C70.6575 84.103 71.3261 83.7292 71.7785 82.9836C72.2309 82.238 72.4548 81.2551 72.4466 80.0311L72.4453 79.8334L72.442 79.8297Z" fill="#EFEBE7"/>
<path id="Vector_9" d="M79.2234 84.9941C78.0417 85.002 77.0805 84.5419 76.3399 83.6139C75.5959 82.6859 75.2208 81.4905 75.2111 80.0278L75.2077 79.5091C75.1979 78.0389 75.5638 76.8237 76.3019 75.8635C77.04 74.9033 77.9616 74.4195 79.0632 74.4122C80.1648 74.4049 81.0287 74.7948 81.6382 75.5856C82.2477 76.3764 82.5586 77.4453 82.5675 78.7886L82.5733 79.6655L76.2239 79.7076L76.2259 80.0173C76.2336 81.1815 76.5037 82.1425 77.0329 82.904C77.5621 83.6655 78.2924 84.045 79.2204 84.0389C79.7779 84.0352 80.288 83.931 80.754 83.7227C81.22 83.5144 81.6055 83.2394 81.9103 82.8904L82.3461 83.6599C82.0281 84.0389 81.6095 84.3551 81.0937 84.6049C80.5746 84.8546 79.9545 84.9856 79.2301 84.9904L79.2234 84.9941ZM79.0662 75.375C78.2917 75.3801 77.6528 75.6941 77.1596 76.3205C76.6629 76.947 76.3744 77.7363 76.2973 78.6921L76.3243 78.7479L81.5521 78.7133L81.5506 78.4782C81.5446 77.5714 81.3293 76.8303 80.8981 76.2435C80.4702 75.6567 79.8607 75.3697 79.0662 75.375Z" fill="#EFEBE7"/>
<path id="Vector_10" d="M88.7453 75.5084L88.0272 75.4572C87.3929 75.4614 86.8701 75.6663 86.4655 76.0646C86.0609 76.4665 85.7741 77.017 85.6051 77.7159L85.6517 84.7535L84.6402 84.7602L84.5726 74.5621L85.4573 74.5562L85.5954 76.2532L85.5961 76.3651C85.8557 75.7365 86.2063 75.2416 86.648 74.8879C87.0897 74.5342 87.6159 74.3553 88.2302 74.3513C88.3537 74.3504 88.4706 74.3609 88.5843 74.3825C88.6979 74.4041 88.7882 74.4259 88.8618 74.4516L88.742 75.5084L88.7453 75.5084Z" fill="#EFEBE7"/>
<path id="Vector_11" d="M92.1698 71.9032L92.1871 74.5153L94.1934 74.502L94.1995 75.4274L92.1932 75.4407L92.2372 82.0827C92.2416 82.7469 92.3516 83.2201 92.5704 83.4986C92.7893 83.777 93.0773 83.9131 93.4378 83.9108C93.5613 83.9099 93.6815 83.9017 93.7949 83.886C93.9116 83.8703 94.045 83.8433 94.205 83.8049L94.3607 84.6435C94.2277 84.719 94.0612 84.7836 93.8612 84.8297C93.6612 84.8795 93.4644 84.9032 93.2675 84.9045C92.6265 84.9087 92.1276 84.6844 91.7674 84.2353C91.4072 83.7861 91.2255 83.0709 91.219 82.0895L91.175 75.4474L89.5994 75.4579L89.5932 74.5325L91.1689 74.522L91.1516 71.91L92.1731 71.9032L92.1698 71.9032Z" fill="#EFEBE7"/>
<path id="Vector_12" d="M101.682 82.0393C101.678 81.5617 101.499 81.145 101.146 80.7928C100.793 80.4406 100.157 80.1538 99.2406 79.9322C98.1606 79.6893 97.3538 79.3476 96.8268 78.9145C96.2998 78.4814 96.032 77.8712 96.0268 77.0876C96.0216 76.304 96.3111 75.649 96.895 75.1041C97.479 74.5591 98.2551 74.2853 99.2198 74.2789C100.238 74.2721 101.051 74.5541 101.662 75.1247C102.274 75.6953 102.569 76.4024 102.545 77.2422L102.528 77.2983L101.593 77.3045C101.59 76.7447 101.373 76.2611 100.94 75.8497C100.506 75.4384 99.9372 75.2332 99.2295 75.2379C98.5218 75.2425 97.9488 75.4255 97.5806 75.7861C97.2124 76.1468 97.0282 76.566 97.0314 77.0436C97.0346 77.5212 97.1973 77.8933 97.5164 78.1935C97.8356 78.4974 98.4717 78.7618 99.4246 78.9869C100.495 79.2447 101.305 79.6051 101.856 80.0716C102.406 80.5381 102.684 81.1707 102.689 81.9692C102.695 82.8163 102.392 83.5086 101.782 84.0426C101.171 84.5765 100.358 84.8468 99.3466 84.8535C98.2383 84.8609 97.3684 84.5719 96.7302 83.9827C96.0953 83.3974 95.7902 82.6941 95.8182 81.8767L95.8345 81.8206L96.7626 81.8144C96.8075 82.5493 97.0781 83.0811 97.5777 83.4099C98.0773 83.7387 98.6626 83.9028 99.3403 83.8983C100.071 83.8934 100.644 83.7068 101.066 83.3383C101.484 82.9698 101.692 82.5319 101.688 82.0244L101.682 82.0393Z" fill="#EFEBE7"/>
<path id="Vector_13" d="M109.918 84.593L109.856 75.3202L108.347 75.3302L108.341 74.4048L109.85 74.3948L109.84 72.9059C109.833 71.8835 110.058 71.0909 110.515 70.5281C110.972 69.9654 111.615 69.6812 112.439 69.6758C112.62 69.6746 112.803 69.6883 112.997 69.7206C113.188 69.7492 113.385 69.7927 113.589 69.8473L113.462 70.781C113.325 70.7446 113.187 70.7157 113.047 70.6942C112.907 70.6728 112.74 70.6627 112.549 70.6639C111.999 70.6676 111.576 70.8644 111.285 71.2582C110.994 71.6482 110.847 72.1977 110.852 72.8992L110.862 74.3881L112.928 74.3744L112.934 75.2998L110.868 75.3135L110.929 84.5863L109.918 84.593Z" fill="#EFEBE7"/>
<path id="Vector_14" d="M114.172 79.3142C114.162 77.8142 114.521 76.5803 115.253 75.6127C115.984 74.6451 116.956 74.161 118.171 74.153C119.386 74.1449 120.371 74.6198 121.115 75.5739C121.859 76.5317 122.234 77.7607 122.244 79.2608L122.246 79.5705C122.256 81.078 121.897 82.3155 121.169 83.2757C120.441 84.2395 119.473 84.7236 118.258 84.7316C117.042 84.7397 116.048 84.2686 115.304 83.3145C114.56 82.3604 114.184 81.1315 114.174 79.6239L114.172 79.3142ZM115.186 79.621C115.194 80.8038 115.467 81.7909 116.007 82.5934C116.546 83.3959 117.293 83.7902 118.251 83.7838C119.209 83.7775 119.924 83.3697 120.457 82.5639C120.989 81.7544 121.249 80.7637 121.241 79.5809L121.239 79.2711C121.232 78.1107 120.955 77.1236 120.412 76.3174C119.866 75.5113 119.122 75.1095 118.177 75.1157C117.232 75.122 116.497 75.5336 115.969 76.3468C115.44 77.1601 115.179 78.1507 115.187 79.3112L115.189 79.6209L115.186 79.621Z" fill="#EFEBE7"/>
<path id="Vector_15" d="M128.487 75.2452L127.769 75.194C127.135 75.1982 126.616 75.4032 126.211 75.8014C125.806 76.2034 125.52 76.7538 125.351 77.4528L125.397 84.4903L124.386 84.497L124.318 74.2989L125.203 74.293L125.341 75.99L125.342 76.102C125.601 75.4733 125.952 74.9784 126.393 74.6247C126.835 74.271 127.361 74.0921 127.976 74.0881C128.099 74.0873 128.216 74.0977 128.33 74.1193C128.443 74.1409 128.534 74.1627 128.607 74.1884L128.487 75.2452Z" fill="#EFEBE7"/>
<path id="Vector_16" d="M135.685 78.7203L135.723 84.422L134.711 84.4287L134.62 70.708L138.853 70.68C140.139 70.6715 141.139 71.0305 141.848 71.761C142.558 72.4914 142.918 73.4555 142.926 74.6571C142.934 75.8586 142.587 76.8535 141.887 77.5858C141.187 78.3181 140.192 78.6904 138.907 78.6989L135.685 78.7203ZM135.679 77.7613L138.9 77.74C139.912 77.7333 140.668 77.4409 141.171 76.8629C141.675 76.2849 141.92 75.5593 141.915 74.6862C141.909 73.813 141.65 73.0796 141.142 72.5008C140.634 71.922 139.871 71.636 138.86 71.6427L135.638 71.664L135.679 77.7613Z" fill="#EFEBE7"/>
<path id="Vector_17" d="M149.228 75.108L148.51 75.0568C147.876 75.061 147.357 75.2659 146.952 75.6642C146.547 76.0662 146.26 76.6166 146.091 77.3155L146.138 84.3531L145.127 84.3598L145.059 74.1617L145.944 74.1558L146.082 75.8528L146.083 75.9647C146.342 75.3361 146.693 74.8412 147.134 74.4875C147.576 74.1338 148.102 73.9549 148.717 73.9509C148.84 73.95 148.957 73.9605 149.071 73.9821C149.184 74.0037 149.275 74.0255 149.348 74.0512L149.228 75.108Z" fill="#EFEBE7"/>
<path id="Vector_18" d="M150.249 79.0755C150.24 77.5754 150.599 76.3416 151.33 75.374C152.061 74.4063 153.033 73.9223 154.245 73.9142C155.457 73.9062 156.445 74.381 157.189 75.3352C157.933 76.293 158.308 77.5219 158.318 79.022L158.32 79.3317C158.33 80.8392 157.971 82.0768 157.243 83.0369C156.515 84.0008 155.547 84.4848 154.332 84.4929C153.116 84.5009 152.122 84.0299 151.381 83.0757C150.637 82.1216 150.261 80.8927 150.252 79.3852L150.249 79.0755ZM151.263 79.3822C151.271 80.5651 151.544 81.5522 152.084 82.3546C152.623 83.1571 153.371 83.5514 154.325 83.5451C155.28 83.5388 155.998 83.131 156.531 82.3252C157.063 81.5156 157.323 80.525 157.315 79.3421L157.313 79.0324C157.306 77.8719 157.029 76.8848 156.486 76.0787C155.94 75.2725 155.196 74.8707 154.251 74.877C153.306 74.8832 152.571 75.2948 152.043 76.1081C151.514 76.9214 151.253 77.912 151.261 79.0725L151.263 79.3822Z" fill="#EFEBE7"/>
<path id="Vector_19" d="M161.047 84.2544L160.986 74.9816L159.47 74.9917L159.464 74.0662L160.98 74.0562L160.971 72.7539C160.964 71.6718 161.225 70.8342 161.756 70.2373C162.286 69.6405 163.025 69.337 163.976 69.3307C164.354 69.3282 164.734 69.3742 165.122 69.465C165.51 69.5557 165.905 69.6911 166.307 69.8713L166.146 70.8426C165.801 70.6882 165.47 70.5672 165.149 70.4835C164.828 70.3961 164.464 70.3574 164.053 70.3602C163.369 70.3647 162.85 70.5734 162.502 70.9824C162.154 71.3915 161.981 71.9822 161.986 72.7472L161.995 74.0495L164.128 74.0354L164.134 74.9608L162.001 74.9749L162.062 84.2476L161.051 84.2543L161.047 84.2544ZM166.949 84.2153L165.938 84.222L165.87 74.0238L166.882 74.0171L166.949 84.2153Z" fill="#EFEBE7"/>
<path id="Vector_20" d="M171.224 71.3798L171.241 73.9918L173.248 73.9785L173.254 74.904L171.247 74.9172L171.291 81.5593C171.296 82.2235 171.409 82.6967 171.625 82.9751C171.844 83.2535 172.132 83.3897 172.492 83.3873C172.616 83.3865 172.736 83.3782 172.849 83.3626C172.963 83.3469 173.099 83.3199 173.256 83.2815L173.415 84.1201C173.279 84.1956 173.112 84.2602 172.915 84.3062C172.715 84.3561 172.519 84.3798 172.322 84.3811C171.681 84.3853 171.182 84.161 170.822 83.7118C170.461 83.2627 170.28 82.5474 170.273 81.566L170.229 74.924L168.654 74.9344L168.647 74.009L170.223 73.9986L170.206 71.3865L171.227 71.3798L171.224 71.3798Z" fill="#EFEBE7"/>
<path id="Vector_21" d="M180.733 81.5154C180.729 81.0378 180.55 80.621 180.197 80.2688C179.844 79.9167 179.208 79.6298 178.292 79.4082C177.212 79.1654 176.405 78.8237 175.878 78.3906C175.351 77.9575 175.083 77.3472 175.078 76.5636C175.073 75.78 175.362 75.1251 175.946 74.5801C176.53 74.0351 177.306 73.7613 178.271 73.7549C179.289 73.7482 180.102 74.0301 180.714 74.6008C181.325 75.1714 181.617 75.8785 181.596 76.7182L181.579 76.7743L180.645 76.7805C180.641 76.2208 180.424 75.7371 179.991 75.3258C179.557 74.9144 178.988 74.7092 178.281 74.7139C177.573 74.7186 177 74.9015 176.632 75.2622C176.263 75.6229 176.079 76.042 176.082 76.5197C176.086 76.9973 176.245 77.3694 176.567 77.6695C176.887 77.9734 177.523 78.2379 178.472 78.4629C179.542 78.7208 180.353 79.0811 180.903 79.5477C181.454 80.0142 181.732 80.6468 181.737 81.4453C181.743 82.2924 181.44 82.9847 180.829 83.5187C180.219 84.0526 179.406 84.3229 178.394 84.3296C177.286 84.337 176.416 84.0479 175.778 83.4588C175.143 82.8734 174.838 82.1702 174.866 81.3527L174.882 81.2967L175.81 81.2905C175.855 82.0253 176.126 82.5572 176.625 82.886C177.125 83.2148 177.714 83.3788 178.388 83.3744C179.119 83.3695 179.692 83.1829 180.114 82.8144C180.532 82.4459 180.739 82.0079 180.736 81.5005L180.733 81.5154Z" fill="#EFEBE7"/>
</g>
<g id="Group_3">
<path id="Vector_22" d="M106.664 62.5865L127.057 62.4514L101.854 34.5749L91.7181 46.0609L106.664 62.5865Z" fill="#EFEBE7"/>
<path id="Vector_23" d="M71.7988 1.33849L51.469 1.54031L74.2908 26.7793L84.4403 15.282L71.7988 1.33849Z" fill="#EFEBE7"/>
<path id="Vector_24" d="M118.041 16.216C127.449 16.2358 144.826 16.2663 160.58 16.2477C164.145 16.2241 167.503 19.6574 167.531 23.915C167.559 28.1727 164.985 31.6452 160.682 31.6737L134.049 31.8501L134.251 62.4036L148.072 62.312L147.964 46.0875L161.607 45.9039C173.886 45.886 181.607 34.11 181.332 23.4094C181.701 16.1078 176.558 0.715261 160.481 0.82175L131.431 1.01416L118.044 16.216L118.041 16.216Z" fill="#EFEBE7"/>
<path id="Vector_25" d="M56.0912 47.6852C46.3164 47.7015 39.6961 47.6856 28.2591 47.7614C21.3221 47.8073 15.3037 41.3802 14.6887 33.712C13.9753 24.7943 20.8981 17.5688 28.5705 17.1523C31.911 16.9697 47.4751 17.0047 58.3843 16.8764C53.6182 11.512 49.3148 6.9506 44.552 1.58618L27.4833 1.69923C14.4672 1.78544 0.288515 13.8318 0.406063 31.5788C0.523611 49.3258 12.3035 63.2116 27.9468 63.108L42.6019 63.0109L56.0946 47.6889L56.0912 47.6852Z" fill="#EFEBE7"/>
<path id="Vector_26" d="M49.5122 62.9648L69.9159 62.8297L124.364 1.05718L103.89 1.19279L49.5122 62.9648Z" fill="#EFEBE7"/>
</g>
</g>
</svg>
