<svg width="51" height="50" viewBox="0 0 51 50" fill="none" xmlns="http://www.w3.org/2000/svg">
<path d="M25.0684 0C11.2243 0 0 11.1944 0 25.0017C0 38.809 11.2243 50.0034 25.0684 50.0034C38.9124 50.0034 50.1367 38.809 50.1367 25.0017C50.1367 11.1944 38.9124 0 25.0684 0ZM25.0684 47.0995C12.8312 47.0995 2.91165 37.2064 2.91165 25.0017C2.91165 12.7971 12.8312 2.90391 25.0684 2.90391C37.3055 2.90391 47.2251 12.7971 47.2251 25.0017C47.2251 37.2064 37.3055 47.0995 25.0684 47.0995Z" fill="black"/>
<path d="M25.0683 2.90391C12.8312 2.90391 2.91162 12.7971 2.91162 25.0017C2.91162 37.2064 12.8312 47.0995 25.0683 47.0995C37.3055 47.0995 47.225 37.2064 47.225 25.0017C47.225 12.7971 37.3021 2.90391 25.0683 2.90391ZM25.0683 43.8189C14.6475 43.8189 6.20096 35.3948 6.20096 25.0017C6.20096 14.6086 14.6475 6.18451 25.0683 6.18451C35.4892 6.18451 43.9357 14.6086 43.9357 25.0017C43.9357 35.3948 35.4892 43.8189 25.0683 43.8189Z" fill="#EDBA00"/>
<path d="M25.0684 43.8189C35.4886 43.8189 43.9358 35.3942 43.9358 25.0017C43.9358 14.6093 35.4886 6.18451 25.0684 6.18451C14.6483 6.18451 6.20105 14.6093 6.20105 25.0017C6.20105 35.3942 14.6483 43.8189 25.0684 43.8189Z" fill="black"/>
<path d="M38.5657 23.1457L36.0695 17.444C36.3339 17.0913 36.4952 16.6495 36.4952 16.1736C36.4952 14.9921 35.5338 14.0299 34.3493 14.0299C34.0677 14.0299 33.7965 14.0847 33.5492 14.184L28.4332 11.4239C28.4058 10.8828 28.1723 10.3657 27.7706 9.98219C27.3379 9.56441 26.7474 9.34525 26.1499 9.36922L25.9336 9.38292L25.9268 13.6703V16.8584V38.6583V40.6171L26.1396 40.6274C26.1808 40.6274 26.2152 40.6274 26.2529 40.6274C26.8092 40.6274 27.3379 40.4185 27.75 40.0315C28.138 39.6685 28.3783 39.1754 28.4229 38.6549L35.1939 35.8263C35.3896 35.8811 35.5956 35.9153 35.812 35.9153C36.9965 35.9153 37.9579 34.9565 37.9579 33.7751C37.9579 33.4258 37.8721 33.0936 37.721 32.7991L38.8266 27.3954C39.8498 27.231 40.6327 26.3475 40.6327 25.2825C40.6327 24.1319 39.7125 23.1868 38.5657 23.1457ZM38.085 23.1833C37.1236 23.3648 36.3888 24.1867 36.3407 25.1866C35.7295 24.8647 35.1115 24.5463 34.4969 24.2209C34.49 24.2209 34.4866 24.2141 34.4797 24.2107C34.339 24.1388 34.1982 24.0634 34.054 23.9881C34.0402 23.9812 34.0265 23.9744 34.0128 23.9675C33.8823 23.899 33.7553 23.8306 33.6248 23.7655C33.5939 23.7484 33.5664 23.7313 33.5355 23.7176C33.4188 23.6559 33.2986 23.5909 33.1819 23.5292C33.1407 23.5087 33.1029 23.4881 33.0651 23.471C32.9621 23.4196 32.8591 23.3614 32.7527 23.31C32.6977 23.2792 32.6359 23.2484 32.5775 23.2176C32.4848 23.1696 32.3887 23.1217 32.296 23.0703C32.2342 23.0361 32.169 23.0053 32.1072 22.971C32.0144 22.9231 31.9183 22.8717 31.8222 22.8238C31.7604 22.7895 31.6951 22.7587 31.6368 22.7245C31.5475 22.68 31.4616 22.6354 31.3758 22.5875C31.3003 22.5464 31.2247 22.5087 31.1458 22.4676C31.0668 22.4265 30.9912 22.3889 30.9123 22.3444C30.8299 22.3033 30.7509 22.2622 30.6685 22.2177L30.4384 22.0978L30.1912 21.9677C30.1123 21.9266 30.0367 21.8855 29.9543 21.8444C29.8822 21.8033 29.8067 21.7656 29.7311 21.728C29.6419 21.68 29.5526 21.6355 29.4667 21.5876C29.429 21.567 29.3981 21.5499 29.3603 21.5362L32.5054 17.2659C32.8831 17.8892 33.5664 18.307 34.3458 18.307C34.8746 18.307 35.3553 18.1152 35.7295 17.8002L38.0815 23.1731L38.085 23.1833ZM28.2066 29.3884C28.2307 29.3781 28.2547 29.3713 28.2719 29.361C28.3062 29.3439 28.3371 29.3302 28.3714 29.3165C28.4023 29.3028 28.4298 29.2925 28.4573 29.2788C28.4916 29.2651 28.5191 29.2514 28.55 29.2377C28.6084 29.2138 28.6702 29.1898 28.7285 29.1658C28.7457 29.159 28.7663 29.1487 28.78 29.1418C28.8247 29.1247 28.8624 29.1042 28.9071 29.0905C28.9483 29.0734 28.9826 29.0562 29.0204 29.0425C29.0479 29.0323 29.0685 29.022 29.0925 29.0117C29.1406 28.9912 29.1852 28.9706 29.2333 28.9535L31.6745 31.4259L33.072 32.8436C32.787 32.7169 32.4986 32.5902 32.2136 32.4601C32.1724 32.443 32.1346 32.4259 32.0934 32.4087C31.8359 32.2923 31.575 32.1793 31.3174 32.0663C31.211 32.0184 31.1046 31.9704 31.0015 31.9225C30.8058 31.8334 30.6101 31.7478 30.4144 31.6622C30.2942 31.6109 30.1741 31.5526 30.0573 31.5013C29.8582 31.4122 29.6556 31.3232 29.4564 31.2342C29.3534 31.1862 29.2504 31.1417 29.1474 31.0972C28.8968 30.9842 28.6427 30.8712 28.392 30.7582C28.4195 30.6246 28.4367 30.4945 28.4367 30.3609C28.4367 30.0219 28.3611 29.6898 28.2066 29.3884ZM29.3431 28.4159L26.7027 25.738L35.551 25.827C35.551 25.827 35.5235 25.8373 35.5098 25.8441C35.0325 26.0427 34.5518 26.2414 34.0711 26.4434C34.0402 26.4537 34.0093 26.4674 33.9784 26.4811C33.745 26.577 33.5115 26.6763 33.278 26.7721C33.2471 26.7858 33.2231 26.7961 33.1956 26.8098C32.7183 27.0084 32.2376 27.207 31.7569 27.4091C31.7192 27.4262 31.6848 27.4399 31.6505 27.457C31.4204 27.5495 31.1973 27.6454 30.9672 27.7413C30.9191 27.7618 30.8745 27.7789 30.8264 27.796C30.6033 27.8885 30.3835 27.981 30.1603 28.0734C30.1294 28.0871 30.102 28.1008 30.0711 28.1145C29.8685 28.1967 29.6693 28.2823 29.4667 28.3645C29.4255 28.3816 29.3843 28.4022 29.3431 28.4159ZM31.7501 25.3373L26.6032 25.2859L29.0891 21.9129C29.635 22.1971 30.1809 22.4813 30.7269 22.7656C30.7406 22.7724 30.7578 22.7827 30.7715 22.7895C31.0256 22.9231 31.2831 23.0532 31.5372 23.1902C31.5715 23.2073 31.6024 23.2244 31.6368 23.2381C31.8874 23.3717 32.1381 23.4984 32.3853 23.6285C32.4162 23.6456 32.4471 23.6628 32.478 23.6765C33.0033 23.9504 33.5218 24.2209 34.0437 24.4949C34.0608 24.5052 34.078 24.5154 34.0952 24.5257C34.3458 24.6593 34.5999 24.7894 34.8506 24.923C34.8849 24.9401 34.9158 24.9572 34.9467 24.9709C35.1939 25.0976 35.4343 25.2243 35.6815 25.351C35.6952 25.3613 35.7089 25.3681 35.7227 25.375L31.7466 25.3339L31.7501 25.3373ZM28.3508 19.2795C28.4023 19.2521 28.4539 19.2316 28.5054 19.2042C28.5363 19.187 28.5637 19.1699 28.5946 19.1562C28.7835 19.0638 28.9689 18.9679 29.1543 18.872C29.1955 18.8514 29.2333 18.8309 29.2745 18.8104C29.4633 18.7145 29.6522 18.6152 29.841 18.5193C29.841 18.5193 29.8433 18.5193 29.8479 18.5193C30.0367 18.42 30.229 18.3207 30.4178 18.2214C30.4625 18.2008 30.5002 18.1768 30.5415 18.1597C30.7269 18.0604 30.9157 17.9645 31.1011 17.8652C31.1286 17.8481 31.1561 17.8344 31.187 17.8173C31.3586 17.7282 31.5303 17.6358 31.7054 17.5467C31.726 17.533 31.7466 17.5228 31.7672 17.5125L28.9483 21.3342C28.6839 21.1938 28.4127 21.0568 28.1483 20.9164C28.3268 20.6013 28.4264 20.2486 28.4298 19.8856C28.4298 19.6802 28.4023 19.4781 28.3474 19.2829L28.3508 19.2795ZM34.3493 14.4853C35.2832 14.4853 36.042 15.2387 36.042 16.1736C36.042 17.1084 35.2832 17.8618 34.3493 17.8618C33.4153 17.8618 32.6565 17.105 32.6565 16.1736C32.6565 15.2421 33.4153 14.4853 34.3493 14.4853ZM26.3869 9.83152C26.7851 9.86234 27.156 10.0267 27.4513 10.3109C27.7912 10.6363 27.9835 11.0849 27.98 11.5437C27.98 12.0026 27.7843 12.4341 27.4375 12.7594C27.1422 13.0334 26.7748 13.1977 26.3834 13.2251V9.83152H26.3869ZM26.38 13.6806C26.8916 13.6498 27.3688 13.4477 27.75 13.0916C28.0865 12.7765 28.3062 12.3656 28.392 11.9273L33.0617 14.4579C32.5363 14.8517 32.1964 15.475 32.1964 16.1736C32.1964 16.3208 32.2136 16.4646 32.2445 16.605L26.3834 16.6324V13.6806H26.38ZM26.38 17.0844L30.5621 17.0639H31.6299C31.6299 17.0639 31.6196 17.0639 31.6127 17.0639C31.4239 17.1666 31.2316 17.2694 31.0393 17.3687C31.0015 17.3892 30.9672 17.4098 30.9294 17.4269C30.7372 17.5262 30.5483 17.6255 30.3595 17.7248C30.3217 17.7454 30.2839 17.7659 30.2462 17.783C30.0573 17.8823 29.8719 17.9782 29.6831 18.0775C29.6728 18.0844 29.6625 18.0878 29.6522 18.0947C29.4564 18.194 29.2607 18.2967 29.065 18.396C29.0238 18.4165 28.9895 18.4371 28.9483 18.4542C28.756 18.5535 28.5672 18.6494 28.3783 18.7487L28.2787 18.7967C28.2444 18.8138 28.2101 18.8309 28.1757 18.8446C28.0693 18.646 27.932 18.4611 27.7637 18.3035C27.3895 17.944 26.8916 17.7282 26.3766 17.694V17.0742L26.38 17.0844ZM27.98 19.8719C27.98 20.3308 27.7843 20.7657 27.4375 21.0876C27.1422 21.365 26.7748 21.5293 26.3834 21.5533V18.1597C26.7851 18.1905 27.156 18.3549 27.4513 18.6391C27.7912 18.9679 27.9835 19.4165 27.98 19.8719ZM26.38 22.0122C26.8916 21.9814 27.3688 21.7759 27.75 21.4198C27.798 21.3752 27.8392 21.3307 27.8839 21.2828C28.1483 21.4232 28.4161 21.5602 28.6805 21.6971L26.38 24.8134V22.0122ZM26.38 26.0633L28.7594 28.4707L28.8933 28.6042C28.5672 28.7412 28.2581 28.8679 27.956 28.998C27.901 28.9261 27.8392 28.8542 27.7706 28.7926C27.3963 28.4296 26.8985 28.2138 26.3834 28.183V26.0633H26.38ZM27.98 30.3575C27.98 30.8164 27.7843 31.2479 27.4375 31.5732C27.1422 31.8471 26.7748 32.0115 26.3834 32.0389V28.6453C26.7851 28.6761 27.156 28.8405 27.4513 29.1247C27.7912 29.45 27.9835 29.8986 27.98 30.3575ZM26.38 32.4909C26.8916 32.4601 27.3688 32.2581 27.75 31.9019C27.9663 31.6999 28.1345 31.4602 28.2547 31.1931C28.2856 31.2068 28.3131 31.2205 28.344 31.2342C28.5363 31.3198 28.7285 31.4054 28.9242 31.491C29.0719 31.5561 29.2161 31.6245 29.3637 31.6862C29.5217 31.7581 29.6831 31.83 29.841 31.9019C29.9921 31.967 30.1466 32.0389 30.2942 32.1074C30.4487 32.1725 30.6067 32.2444 30.7578 32.3129C30.9088 32.3813 31.0634 32.4498 31.2144 32.5183C31.3689 32.5868 31.5269 32.6587 31.678 32.7272C31.829 32.7923 31.9801 32.8608 32.1312 32.9293C32.2788 32.9943 32.4299 33.0628 32.5775 33.1279C32.7286 33.1964 32.8831 33.2648 33.0342 33.3333L26.3731 33.4189V32.4909H26.38ZM27.4375 39.7028C27.1422 39.9801 26.7748 40.1445 26.38 40.1685L26.3869 36.7749C26.7851 36.8057 27.156 36.9701 27.4513 37.2543C27.7912 37.583 27.9835 38.0316 27.98 38.4871C27.9732 38.946 27.7809 39.3774 27.4375 39.7028ZM28.4092 38.172C28.3405 37.7063 28.1174 37.2611 27.7671 36.929C27.3929 36.5694 26.8985 36.3537 26.3834 36.3194V33.8744L33.6626 33.7785C33.6626 34.525 34.054 35.1859 34.6377 35.5695L28.4092 38.172ZM35.812 35.4668C34.878 35.4668 34.1192 34.71 34.1192 33.7785C34.1192 32.8471 34.878 32.0903 35.812 32.0903C36.7459 32.0903 37.5047 32.8436 37.5047 33.7785C37.5047 34.7134 36.7459 35.4668 35.812 35.4668ZM38.1845 28.272L37.3571 32.2957C36.9691 31.8882 36.4197 31.6348 35.812 31.6348C34.9158 31.6348 34.1501 32.1827 33.8274 32.9601L29.6899 28.7652C29.6899 28.7652 29.7105 28.7583 29.7208 28.7549C29.8341 28.7069 29.9509 28.659 30.0642 28.6076C30.102 28.5939 30.1397 28.5768 30.1775 28.5597C30.2908 28.5117 30.4041 28.4672 30.514 28.4193C30.5518 28.4022 30.5861 28.385 30.6239 28.3713C30.7372 28.3234 30.847 28.2789 30.9603 28.2275C31.0015 28.2104 31.0359 28.1967 31.0771 28.1796C31.187 28.1316 31.2968 28.0871 31.4067 28.0392C31.4479 28.0221 31.4822 28.0084 31.52 27.9912C31.6368 27.9433 31.7501 27.8954 31.8634 27.8474C31.8977 27.8337 31.9286 27.82 31.9629 27.8063C32.0762 27.7584 32.1896 27.7104 32.3029 27.6625C32.3441 27.6454 32.3784 27.6282 32.4196 27.6145C32.5295 27.5666 32.6394 27.5221 32.7492 27.4776C32.787 27.4604 32.8179 27.4468 32.8557 27.4296C32.9724 27.3817 33.0857 27.3337 33.199 27.2858C33.2196 27.2755 33.2437 27.2653 33.2643 27.255C34.339 26.8098 35.4034 26.3681 36.454 25.9297C36.7253 26.7482 37.4772 27.3474 38.37 27.3988L38.1948 28.2481L38.1845 28.272ZM38.4798 26.9708C37.5459 26.9708 36.7871 26.2174 36.7871 25.2825C36.7871 24.3477 37.5459 23.5943 38.4798 23.5943C39.4138 23.5943 40.1726 24.3511 40.1726 25.2825C40.1726 26.214 39.4172 26.9708 38.4798 26.9708Z" fill="#EDBA00"/>
<path d="M24.2099 38.6583V13.6737L24.2031 9.38634L23.9833 9.37264C23.3893 9.34525 22.7987 9.56784 22.3627 9.98562C21.9644 10.3692 21.7275 10.8897 21.7034 11.4273L16.5874 14.1874C16.3402 14.0881 16.069 14.0333 15.7874 14.0333C14.6029 14.0333 13.638 14.9955 13.638 16.177C13.638 16.653 13.796 17.0947 14.0638 17.4474L11.571 23.1491C10.4242 23.1936 9.50403 24.1353 9.50403 25.2859C9.50403 26.3509 10.2869 27.2344 11.3066 27.3988L12.4157 32.8025C12.2646 33.097 12.1753 33.4292 12.1753 33.7785C12.1753 34.9599 13.1402 35.9188 14.3247 35.9188C14.5376 35.9188 14.7471 35.8845 14.9428 35.8297L21.7103 38.6583C21.7618 39.1788 21.9987 39.6719 22.3867 40.0349C22.7987 40.4219 23.3241 40.6308 23.8803 40.6308C23.9215 40.6308 23.9559 40.6308 23.9936 40.6308L24.2134 40.6205V38.6617L24.2099 38.6583ZM22.3627 28.796C22.2974 28.8576 22.2356 28.9295 22.1773 29.0014C21.8751 28.8713 21.5661 28.7446 21.2433 28.6076L21.3738 28.4741L23.7533 26.0667V28.1864C23.2382 28.2172 22.7438 28.433 22.3661 28.796H22.3627ZM23.7498 32.0389C23.3584 32.0081 22.991 31.8471 22.6957 31.5732C22.3524 31.2479 22.1567 30.8198 22.1567 30.3575C22.1498 29.8986 22.3421 29.4466 22.6854 29.1247C22.9807 28.8405 23.3515 28.6761 23.7498 28.6453V32.0389ZM22.6957 21.0876C22.3524 20.7657 22.1567 20.3342 22.1567 19.8719C22.1498 19.4165 22.3421 18.9645 22.6854 18.6391C22.9807 18.3549 23.3515 18.1905 23.7498 18.1597V21.5533C23.3618 21.5259 22.9945 21.365 22.6992 21.0876H22.6957ZM23.7498 22.0122V24.8134L21.4528 21.6971C21.7172 21.5602 21.985 21.4232 22.2494 21.2828C22.294 21.3307 22.3352 21.3752 22.3833 21.4198C22.761 21.7759 23.2417 21.9814 23.7498 22.0122ZM22.3627 18.3104C22.1979 18.4679 22.0605 18.6528 21.9507 18.8514C21.9163 18.8343 21.8854 18.8172 21.8511 18.8035C21.8167 18.7898 21.7858 18.7693 21.7515 18.7556C21.5627 18.6563 21.3704 18.5604 21.1815 18.4611C21.1403 18.4405 21.1026 18.42 21.0614 18.4028C20.8691 18.3035 20.6734 18.2008 20.4777 18.1015C20.4674 18.0947 20.4571 18.0912 20.4468 18.0844C20.2579 17.9851 20.0691 17.8892 19.8802 17.7899C19.8425 17.7693 19.8081 17.7488 19.7704 17.7317C19.5815 17.6324 19.3892 17.533 19.2004 17.4337C19.1626 17.4132 19.1248 17.3926 19.0871 17.3755C18.8982 17.2762 18.7059 17.1735 18.5137 17.0707C18.5137 17.0707 18.5034 17.0707 18.4999 17.0639H19.5678L23.7498 17.0879V17.7077C23.2348 17.7419 22.7404 17.9542 22.3627 18.3172V18.3104ZM18.9429 17.8104C18.9738 17.8275 18.9978 17.8412 19.0287 17.8584C19.2141 17.9577 19.3995 18.0536 19.5884 18.1529C19.6296 18.1734 19.6673 18.1974 19.7085 18.2145C19.9008 18.3138 20.0897 18.4131 20.2819 18.5124C20.4708 18.6083 20.6596 18.7076 20.8519 18.8035C20.8931 18.8275 20.9309 18.848 20.9721 18.8651C21.1575 18.961 21.3429 19.0569 21.5283 19.1494C21.5592 19.1665 21.5901 19.1836 21.621 19.1973C21.6725 19.2247 21.724 19.2453 21.7755 19.2727C21.7206 19.4678 21.6897 19.6699 21.6897 19.8753C21.6897 20.2349 21.7927 20.5911 21.9713 20.9061C21.7069 21.0465 21.4391 21.1835 21.1712 21.3239L18.3557 17.5022C18.3763 17.5125 18.4004 17.5228 18.4175 17.5365C18.5892 17.6255 18.7609 17.718 18.936 17.807L18.9429 17.8104ZM23.5301 25.2825L18.3832 25.3339L14.4071 25.375C14.4071 25.375 14.4346 25.3613 14.4483 25.351C14.6921 25.2243 14.9359 25.0976 15.1797 24.9709C15.214 24.9538 15.2449 24.9366 15.2758 24.9229C15.5265 24.7894 15.784 24.6593 16.0346 24.5257C16.0518 24.5154 16.069 24.5052 16.0861 24.4949C16.6046 24.2244 17.1265 23.9538 17.6518 23.6765C17.6828 23.6593 17.7102 23.6422 17.7446 23.6285C17.9918 23.4984 18.2424 23.3717 18.4896 23.2381C18.524 23.221 18.5549 23.2039 18.5892 23.1902C18.8433 23.0532 19.1008 22.9231 19.3549 22.7895C19.3721 22.7827 19.3858 22.7724 19.403 22.7656C19.9455 22.4813 20.4948 22.1971 21.0408 21.9129L23.5267 25.2859L23.5301 25.2825ZM23.4271 25.7414L20.7901 28.4193C20.7455 28.4022 20.7077 28.3816 20.6631 28.3679C20.4639 28.2857 20.2613 28.2001 20.0622 28.1179C20.0313 28.1042 20.0004 28.0905 19.9695 28.0768C19.7463 27.9844 19.5266 27.8919 19.3034 27.7995C19.2553 27.7789 19.2141 27.7618 19.166 27.7447C18.936 27.6488 18.7094 27.5529 18.4828 27.4604C18.445 27.4433 18.4141 27.4296 18.3763 27.4125C17.8956 27.2105 17.4149 27.0118 16.9377 26.8132C16.9102 26.7995 16.8827 26.7893 16.8553 26.7756C16.6183 26.6797 16.3883 26.5804 16.1514 26.4845C16.1205 26.4708 16.093 26.4571 16.0621 26.4468C15.578 26.2448 15.1007 26.0462 14.6235 25.8475C14.6097 25.8407 14.596 25.8338 14.5823 25.8304L23.4271 25.7414ZM20.8966 28.9569C20.9446 28.9775 20.9927 28.998 21.0408 29.0151C21.0648 29.0254 21.0888 29.0357 21.1094 29.046C21.1506 29.0597 21.185 29.0768 21.2227 29.0939C21.2674 29.111 21.3086 29.1316 21.3532 29.1453C21.3704 29.1521 21.3876 29.1624 21.4013 29.1692C21.4631 29.1932 21.5215 29.2172 21.5798 29.2411C21.6142 29.2548 21.6416 29.2685 21.6725 29.2822C21.7034 29.2959 21.7309 29.3062 21.7584 29.3199C21.7927 29.3336 21.8236 29.3473 21.858 29.3644C21.882 29.3747 21.906 29.3815 21.9266 29.3918C21.7755 29.6932 21.6897 30.0288 21.6931 30.3644C21.6931 30.4979 21.7103 30.628 21.7378 30.7616C21.4871 30.8746 21.2365 30.9876 20.9858 31.1006C20.8828 31.1451 20.7798 31.1896 20.6768 31.2376C20.4777 31.3266 20.2751 31.4157 20.0759 31.5047C19.9558 31.5561 19.8356 31.6143 19.7188 31.6656C19.5231 31.7513 19.3274 31.8369 19.1317 31.9259C19.0253 31.9738 18.9188 32.0184 18.8124 32.0697C18.5549 32.1862 18.2974 32.2992 18.0398 32.4122C17.9986 32.4327 17.9609 32.4498 17.9162 32.4635C17.6312 32.5937 17.3463 32.7204 17.0613 32.8471L18.4587 31.4294L20.8966 28.9569ZM17.5488 33.1244C17.6965 33.0594 17.8476 32.9909 17.9952 32.9258C18.1428 32.8573 18.2974 32.7888 18.445 32.7238C18.5995 32.6553 18.7575 32.5834 18.9085 32.5149C19.0596 32.4464 19.2141 32.3779 19.3686 32.3094C19.5197 32.2409 19.6776 32.169 19.8287 32.104C19.9798 32.0355 20.1343 31.9636 20.2854 31.8985C20.4433 31.8266 20.6047 31.7547 20.7626 31.6828C20.9103 31.6211 21.0545 31.5526 21.2021 31.4876C21.3944 31.402 21.5901 31.3163 21.7824 31.2307C21.8133 31.217 21.8408 31.2033 21.8717 31.1896C21.9884 31.4533 22.1601 31.6965 22.3764 31.8985C22.7541 32.2546 23.2348 32.4567 23.743 32.4875V33.4155L17.0819 33.3299C17.233 33.2614 17.3875 33.1929 17.542 33.1244H17.5488ZM22.682 10.3109C22.9773 10.0267 23.3481 9.86234 23.743 9.83152L23.7498 13.2251C23.3584 13.1943 22.991 13.0334 22.6957 12.7594C22.3524 12.4341 22.1567 12.006 22.1567 11.5437C22.1498 11.0849 22.3421 10.6328 22.6854 10.3109H22.682ZM21.7378 11.9238C21.8236 12.3656 22.0502 12.7731 22.3833 13.0881C22.761 13.4443 23.2417 13.6463 23.7498 13.6771V16.629L17.8922 16.6016C17.9231 16.4612 17.9368 16.3174 17.9368 16.1701C17.9368 15.4681 17.5935 14.8449 17.0716 14.4545L21.7412 11.9238H21.7378ZM15.7874 14.4853C16.7214 14.4853 17.4802 15.2387 17.4802 16.1735C17.4802 17.1084 16.7214 17.8618 15.7874 17.8618C14.8535 17.8618 14.0947 17.105 14.0947 16.1735C14.0947 15.2421 14.8501 14.4853 15.7874 14.4853ZM14.4003 17.8104C14.7745 18.1255 15.2587 18.3172 15.7874 18.3172C16.5668 18.3172 17.2501 17.896 17.6244 17.2762L20.7695 21.5465C20.7352 21.5636 20.7008 21.5807 20.6665 21.5978C20.5772 21.6458 20.4914 21.6903 20.4021 21.7382C20.33 21.7759 20.2545 21.8136 20.1755 21.8547C20.0965 21.8958 20.021 21.9369 19.9386 21.9779C19.8596 22.0225 19.7772 22.0636 19.6914 22.1081C19.6158 22.1492 19.5403 22.1868 19.4613 22.2279C19.3824 22.2724 19.3 22.3135 19.2175 22.3546C19.1386 22.3991 19.063 22.4368 18.9841 22.4779C18.9051 22.519 18.833 22.5567 18.754 22.5978C18.6682 22.6457 18.5789 22.6902 18.4931 22.7347C18.4313 22.769 18.366 22.7998 18.3077 22.8341C18.2115 22.882 18.1154 22.9334 18.0192 22.9813C17.9574 23.0155 17.8922 23.0464 17.8304 23.0806C17.7377 23.1286 17.645 23.1765 17.5523 23.2279C17.4939 23.2587 17.4321 23.2895 17.3737 23.3203C17.2707 23.3717 17.1677 23.4299 17.0647 23.4813C17.0235 23.5018 16.9892 23.5224 16.948 23.5395L16.5909 23.7278C16.56 23.7415 16.5325 23.7586 16.505 23.7758C16.3746 23.8408 16.2475 23.9093 16.1171 23.9778C16.1033 23.9847 16.0896 23.9915 16.0724 23.9984C15.9316 24.0737 15.7909 24.1456 15.6467 24.2209C15.6467 24.2209 15.6364 24.2278 15.6329 24.2312C15.0114 24.5565 14.4003 24.875 13.7857 25.1969C13.7376 24.197 13.0063 23.3785 12.0449 23.1936L14.3934 17.8207L14.4003 17.8104ZM9.95726 25.2825C9.95726 24.3511 10.7161 23.5943 11.65 23.5943C12.5839 23.5943 13.3427 24.3511 13.3427 25.2825C13.3427 26.214 12.5839 26.9708 11.65 26.9708C10.7161 26.9708 9.95726 26.2174 9.95726 25.2825ZM11.9522 28.272L11.777 27.4228C12.6732 27.3714 13.4217 26.7721 13.693 25.9537C14.7436 26.392 15.808 26.8304 16.8827 27.279C16.9068 27.2892 16.9308 27.2995 16.9514 27.3098C17.0647 27.3577 17.1815 27.4057 17.2948 27.4536C17.3291 27.4707 17.3634 27.4844 17.3978 27.5015C17.5076 27.5461 17.6209 27.5906 17.7308 27.6385C17.7686 27.6556 17.8064 27.6728 17.8441 27.6865C17.9609 27.7344 18.0742 27.7789 18.1875 27.8303C18.2218 27.844 18.2527 27.8577 18.2871 27.8714C18.4004 27.9193 18.5137 27.9673 18.627 28.0152C18.6647 28.0323 18.7025 28.046 18.7403 28.0631C18.8502 28.1111 18.96 28.1556 19.0733 28.2035C19.1111 28.2207 19.1489 28.2344 19.1866 28.2515C19.3 28.2994 19.4133 28.3474 19.5266 28.3953C19.5643 28.409 19.5952 28.4261 19.633 28.4433C19.7463 28.4912 19.8596 28.5357 19.9695 28.5837C20.0107 28.6008 20.045 28.6179 20.0862 28.6316C20.1995 28.6795 20.3129 28.7275 20.4296 28.7789C20.4399 28.7789 20.4502 28.7857 20.4605 28.7891L16.3231 32.984C16.0003 32.2067 15.2312 31.6588 14.3385 31.6588C13.7273 31.6588 13.1814 31.9122 12.7899 32.3197L11.9659 28.296L11.9522 28.272ZM14.3247 35.4667C13.3908 35.4667 12.632 34.71 12.632 33.7785C12.632 32.8471 13.3874 32.0903 14.3247 32.0903C15.2621 32.0903 16.0175 32.8436 16.0175 33.7785C16.0175 34.7134 15.2587 35.4667 14.3247 35.4667ZM15.499 35.5695C16.0827 35.1859 16.4707 34.5285 16.4707 33.7785L23.7498 33.8744V36.3194C23.2382 36.3537 22.7438 36.566 22.3696 36.929C22.0193 37.2646 21.7961 37.7063 21.7275 38.172L15.499 35.5695ZM22.6992 39.7028C22.3558 39.3774 22.1601 38.9494 22.1601 38.4871C22.1532 38.0316 22.3455 37.5796 22.6889 37.2543C22.9842 36.9701 23.355 36.8057 23.7533 36.7749V40.1685C23.3653 40.1411 22.9979 39.9801 22.7026 39.7028H22.6992Z" fill="#EDBA00"/>
</svg>
