<svg width="117" height="120" viewBox="0 0 117 120" fill="none" xmlns="http://www.w3.org/2000/svg">
<g id="Logo trading">
<path id="Vector" d="M90.6762 28.125L105.184 50.625L58.0327 103.125L10.8811 50.625L25.3893 28.125H90.6762Z" stroke="white" stroke-width="2" stroke-linecap="round" stroke-linejoin="round"/>
<path id="Vector_2" d="M21.7623 50.625H96.1168" stroke="white" stroke-width="2" stroke-linecap="round" stroke-linejoin="round"/>
<path id="Vector_3" d="M32.6434 37.5L41.7111 50.625L58.0328 33.75L74.3545 50.625L83.4221 37.5" stroke="white" stroke-width="2" stroke-linecap="round" stroke-linejoin="round"/>
<path id="Vector_4" d="M62.1133 90L74.3546 50.625" stroke="white" stroke-width="2" stroke-linecap="round" stroke-linejoin="round"/>
<path id="Vector_5" d="M41.7111 50.625L53.9524 90" stroke="white" stroke-width="2" stroke-linecap="round" stroke-linejoin="round"/>
<path id="Vector_6" d="M85.2357 5.625V7.5" stroke="white" stroke-width="2" stroke-linecap="round" stroke-linejoin="round"/>
<path id="Vector_7" d="M90.6762 11.25H88.8627" stroke="white" stroke-width="2" stroke-linecap="round" stroke-linejoin="round"/>
<path id="Vector_8" d="M85.2357 16.875V15" stroke="white" stroke-width="2" stroke-linecap="round" stroke-linejoin="round"/>
<path id="Vector_9" d="M79.795 11.25H81.6086" stroke="white" stroke-width="0.75" stroke-linecap="round" stroke-linejoin="round"/>
<path id="Vector_10" d="M29.0164 93.3L27.7288 94.6125" stroke="white" stroke-width="0.75" stroke-linecap="round" stroke-linejoin="round"/>
<path id="Vector_11" d="M29.0164 101.25L27.7288 99.9187" stroke="white" stroke-width="0.75" stroke-linecap="round" stroke-linejoin="round"/>
<path id="Vector_12" d="M21.327 101.25L22.5965 99.9187" stroke="white" stroke-width="0.75" stroke-linecap="round" stroke-linejoin="round"/>
<path id="Vector_13" d="M21.327 93.3L22.5965 94.6125" stroke="white" stroke-width="0.75" stroke-linecap="round" stroke-linejoin="round"/>
<path id="Vector_14" d="M33.5502 18.75C34.051 18.75 34.457 18.3303 34.457 17.8125C34.457 17.2947 34.051 16.875 33.5502 16.875C33.0494 16.875 32.6434 17.2947 32.6434 17.8125C32.6434 18.3303 33.0494 18.75 33.5502 18.75Z" stroke="white" stroke-width="0.75" stroke-linecap="round" stroke-linejoin="round"/>
<path id="Vector_15" d="M26.2962 13.125C26.797 13.125 27.2029 12.7053 27.2029 12.1875C27.2029 11.6697 26.797 11.25 26.2962 11.25C25.7954 11.25 25.3894 11.6697 25.3894 12.1875C25.3894 12.7053 25.7954 13.125 26.2962 13.125Z" stroke="white" stroke-width="0.75" stroke-linecap="round" stroke-linejoin="round"/>
<path id="Vector_16" d="M38.9907 9.375C39.4915 9.375 39.8975 8.95527 39.8975 8.4375C39.8975 7.91973 39.4915 7.5 38.9907 7.5C38.49 7.5 38.084 7.91973 38.084 8.4375C38.084 8.95527 38.49 9.375 38.9907 9.375Z" stroke="white" stroke-width="0.75" stroke-linecap="round" stroke-linejoin="round"/>
<path id="Vector_17" d="M90.6763 82.5V84.375" stroke="white" stroke-width="0.75" stroke-linecap="round" stroke-linejoin="round"/>
<path id="Vector_18" d="M93.8137 88.125L92.254 87.1875" stroke="white" stroke-width="0.75" stroke-linecap="round" stroke-linejoin="round"/>
<path id="Vector_19" d="M87.5388 88.125L89.0985 87.1875" stroke="white" stroke-width="0.75" stroke-linecap="round" stroke-linejoin="round"/>
</g>
</svg>
