<svg width="145" height="45" viewBox="0 0 145 45" fill="none" xmlns="http://www.w3.org/2000/svg">
<path d="M85.3157 44.5311H101.549L81.6383 24.618L73.5111 32.7271L85.3157 44.5311Z" fill="#EFEBE7"/>
<path d="M57.8953 0.876514L41.7164 0.924456L59.7426 18.954L67.8801 10.8382L57.8953 0.876514Z" fill="#EFEBE7"/>
<path d="M94.6172 11.66C102.102 11.7182 115.933 11.821 128.469 11.8826C131.305 11.8826 133.959 14.3379 133.959 17.3583C133.959 20.3786 131.892 22.8339 128.469 22.8339H107.273V44.5311H118.271V33.0113L129.128 32.9462C138.9 32.9907 145.108 24.666 144.943 17.0672C145.276 11.8826 141.262 0.927879 128.469 0.927879H105.35L94.6172 11.66Z" fill="#EFEBE7"/>
<path d="M45.15 33.7133C37.373 33.6791 32.1025 33.6345 23.0001 33.6345C17.479 33.6345 12.7235 29.0424 12.2771 23.5976C11.7552 17.2624 17.3039 12.1668 23.4121 11.9032C26.0697 11.7901 38.458 11.8895 47.138 11.8484C43.3748 8.01643 39.9722 4.75981 36.209 0.927879H22.6224C12.2634 0.927879 0.918945 9.4136 0.918945 22.0155C0.918945 34.6173 10.2204 44.5311 22.6705 44.5311H34.3308L45.1465 33.7133H45.15Z" fill="#EFEBE7"/>
<path d="M39.8314 44.5311H56.0721L99.7297 0.927879H83.4341L39.8314 44.5311Z" fill="#EFEBE7"/>
</svg>
