<svg width="40" height="40" viewBox="0 0 40 40" fill="none" xmlns="http://www.w3.org/2000/svg">
<rect width="40" height="40" rx="5" fill="#E6A000"/>
<path d="M28.6029 19.998L32.3002 16.3005L35.9977 19.998L32.3002 23.6953L28.6029 19.998ZM4 20L7.69726 16.3027L11.3945 20L7.69726 23.6973L4 20ZM19.9977 28.6066L13.8689 22.4777L10.1722 26.1744L19.9977 36L29.8233 26.1744L26.1266 22.4777L19.9977 28.6066ZM19.9977 11.3934L26.1266 17.5223L29.8233 13.8256L19.9977 4L10.1722 13.8256L13.8689 17.5223L19.9977 11.3934Z" fill="white"/>
<path d="M16.3446 20L19.9957 16.3489L23.6468 20L19.9957 23.6511L16.3446 20Z" fill="white"/>
</svg>
