<svg width="40" height="40" viewBox="0 0 40 40" fill="none" xmlns="http://www.w3.org/2000/svg">
<g clip-path="url(#clip0_7_1133)">
<rect width="40" height="40" rx="5" fill="#E6A000"/>
<path d="M31.7633 12.0102C32.0312 14.9452 31.0565 17.0254 28.8392 18.251C30.5803 18.7025 31.8824 19.533 32.7455 20.7424C33.6086 21.9519 33.9434 23.6774 33.7499 25.9189C33.6458 27.0638 33.404 28.0717 33.0245 28.9425C32.645 29.8133 32.1651 30.5309 31.5848 31.0953C31.0044 31.6597 30.2827 32.1314 29.4196 32.5104C28.5565 32.8893 27.6525 33.1675 26.7075 33.3449C25.7626 33.5223 24.68 33.6432 23.4598 33.7077V39.8759H20.0223V33.8045C18.8318 33.8045 17.9241 33.7964 17.2991 33.7803V39.8759H13.8616V33.7077C13.5937 33.7077 13.1919 33.7037 12.6562 33.6956C12.1205 33.6876 11.7113 33.6835 11.4285 33.6835H6.96423L7.6562 29.257H10.1339C10.8779 29.257 11.3095 28.8457 11.4285 28.0233V18.2994H11.7857C11.6964 18.2832 11.5773 18.2752 11.4285 18.2752V11.3329C11.2351 10.2364 10.5729 9.6881 9.44191 9.6881H6.96423V5.72111L11.6964 5.74529C12.6488 5.74529 13.3705 5.73723 13.8616 5.72111V-0.374512H17.2991V5.60016C18.5193 5.56791 19.427 5.55178 20.0223 5.55178V-0.374512H23.4598V5.72111C24.6354 5.83399 25.677 6.0154 26.5848 6.26536C27.4925 6.51531 28.3333 6.87814 29.1071 7.35386C29.8809 7.82958 30.4947 8.45849 30.9486 9.2406C31.4025 10.0227 31.6741 10.9459 31.7633 12.0102ZM26.9642 25.1932C26.9642 24.6127 26.8526 24.0967 26.6294 23.6451C26.4062 23.1936 26.1309 22.8227 25.8035 22.5324C25.4761 22.2422 25.0483 21.9962 24.52 21.7947C23.9918 21.5931 23.5044 21.4439 23.058 21.3472C22.6116 21.2504 22.061 21.1779 21.4062 21.1295C20.7514 21.0811 20.238 21.0569 19.866 21.0569C19.494 21.0569 19.0141 21.065 18.4263 21.0811C17.8385 21.0972 17.4851 21.1053 17.366 21.1053V29.2812C17.4851 29.2812 17.7604 29.2852 18.1919 29.2932C18.6235 29.3013 18.9806 29.3053 19.2633 29.3053C19.5461 29.3053 19.9404 29.2932 20.4464 29.2691C20.9523 29.2449 21.3876 29.2126 21.7522 29.1723C22.1168 29.132 22.5409 29.0634 23.0245 28.9667C23.5081 28.8699 23.9211 28.7571 24.2633 28.628C24.6056 28.499 24.959 28.3297 25.3236 28.1201C25.6882 27.9104 25.9821 27.6686 26.2053 27.3944C26.4285 27.1203 26.6108 26.7978 26.7522 26.4269C26.8935 26.056 26.9642 25.6447 26.9642 25.1932ZM25.3794 13.6793C25.3794 13.1471 25.2864 12.6754 25.1004 12.2642C24.9144 11.853 24.6874 11.5144 24.4196 11.2483C24.1517 10.9822 23.7946 10.7564 23.3482 10.571C22.9017 10.3855 22.4925 10.2525 22.1205 10.1719C21.7485 10.0912 21.2909 10.0267 20.7477 9.97836C20.2046 9.92998 19.773 9.90983 19.4531 9.91789C19.1331 9.92595 18.7313 9.93402 18.2477 9.94208C17.7641 9.95014 17.4702 9.95417 17.366 9.95417V17.3802C17.4404 17.3802 17.6971 17.3842 18.1361 17.3923C18.5751 17.4003 18.9211 17.4003 19.1741 17.3923C19.427 17.3842 19.7991 17.3681 20.2901 17.3439C20.7812 17.3197 21.1904 17.2754 21.5178 17.2109C21.8452 17.1464 22.2284 17.0577 22.6674 16.9448C23.1063 16.8319 23.4672 16.6827 23.7499 16.4973C24.0327 16.3118 24.308 16.0941 24.5758 15.8442C24.8437 15.5942 25.0446 15.2838 25.1785 14.9129C25.3124 14.542 25.3794 14.1308 25.3794 13.6793Z" fill="#EFEBE7"/>
</g>
<defs>
<clipPath id="clip0_7_1133">
<rect width="40" height="40" rx="5" fill="white"/>
</clipPath>
</defs>
</svg>
