<svg width="40" height="40" viewBox="0 0 40 40" fill="none" xmlns="http://www.w3.org/2000/svg">
<rect width="40" height="40" rx="5" fill="#E6A000"/>
<path d="M9.125 30.8923V25.7231H12.1875V13.9077H9.125V8.9231H21.9375C22.8125 8.9231 23.6875 9.16925 24.5 9.47694C26.125 10.0923 27.5625 11.0154 28.6875 12.3692C29.6875 13.5385 30.375 14.8923 30.75 16.4308C31.375 19.0154 31.375 21.6616 30.625 24.2462C29.625 27.6308 27.5 29.9077 23.875 30.7077C23.25 30.8308 22.5625 30.8923 21.9375 30.9539H9.625C9.4375 30.8923 9.3125 30.8923 9.125 30.8923ZM18.4375 25.7231C19.125 25.7231 19.8125 25.7846 20.5 25.7231C21.375 25.6616 22.1875 25.3539 22.75 24.6154C23.25 24 23.6875 23.3231 23.9375 22.5846C24.4375 20.9231 24.25 19.2616 23.875 17.6C23.6875 16.6154 23.1875 15.6923 22.5625 14.9539C22.1875 14.5231 21.6875 14.0308 21.125 13.9692C20.25 13.7846 19.3125 13.9077 18.4375 13.9077V25.7231Z" fill="white"/>
</svg>
