<svg width="21" height="20" viewBox="0 0 21 20" fill="none" xmlns="http://www.w3.org/2000/svg">
<g clip-path="url(#clip0_60_307)">
<path d="M6.59457 1.14941H3.70987C3.19983 1.14941 2.71067 1.35178 2.35001 1.712C1.98936 2.07222 1.78674 2.56078 1.78674 3.0702V5.95138M19.0949 5.95138V3.0702C19.0949 2.56078 18.8923 2.07222 18.5316 1.712C18.171 1.35178 17.6818 1.14941 17.1718 1.14941H14.2871M14.2871 18.4365H17.1718C17.6818 18.4365 18.171 18.2341 18.5316 17.8739C18.8923 17.5137 19.0949 17.0251 19.0949 16.5157V13.6345M1.78674 13.6345V16.5157C1.78674 17.0251 1.98936 17.5137 2.35001 17.8739C2.71067 18.2341 3.19983 18.4365 3.70987 18.4365H6.59457" stroke="#F2EFEB" stroke-width="7" stroke-linecap="round" stroke-linejoin="round"/>
</g>
<defs>
<clipPath id="clip0_60_307">
<rect width="19.2313" height="19.2079" fill="white" transform="translate(0.825195 0.188965)"/>
</clipPath>
</defs>
</svg>
