<svg width="20" height="19" viewBox="0 0 20 19" fill="none" xmlns="http://www.w3.org/2000/svg">
<g id="Next">
<path id="Vector" d="M3.94541 0.724599C3.77532 0.554782 3.57339 0.420076 3.35115 0.328172C3.12891 0.236268 2.89072 0.188965 2.65017 0.188965C2.40962 0.188965 2.17143 0.236268 1.94919 0.328172C1.72695 0.420076 1.52502 0.554782 1.35493 0.724599C1.18483 0.894416 1.04991 1.09602 0.957855 1.31789C0.865801 1.53977 0.818421 1.77758 0.818421 2.01773C0.818421 2.25789 0.865801 2.4957 0.957855 2.71757C1.04991 2.93945 1.18483 3.14105 1.35493 3.31087L7.37507 9.303L1.35493 15.2951C1.18394 15.4644 1.04822 15.6659 0.955608 15.8878C0.862992 16.1098 0.815308 16.3478 0.815308 16.5883C0.815308 16.8287 0.862992 17.0668 0.955608 17.2887C1.04822 17.5106 1.18394 17.7121 1.35493 17.8814C1.52452 18.0521 1.72629 18.1876 1.94859 18.2801C2.1709 18.3725 2.40934 18.4201 2.65017 18.4201C2.891 18.4201 3.12944 18.3725 3.35175 18.2801C3.57405 18.1876 3.77582 18.0521 3.94541 17.8814L11.2425 10.5961C11.4135 10.4268 11.5492 10.2254 11.6419 10.0034C11.7345 9.78149 11.7822 9.54343 11.7822 9.303C11.7822 9.06256 11.7345 8.8245 11.6419 8.60256C11.5492 8.38062 11.4135 8.17918 11.2425 8.00986L3.94541 0.724599ZM17.2444 0.196417C16.7606 0.196417 16.2966 0.388306 15.9545 0.729869C15.6124 1.07143 15.4202 1.53469 15.4202 2.01773V16.5883C15.4202 17.0713 15.6124 17.5346 15.9545 17.8761C16.2966 18.2177 16.7606 18.4096 17.2444 18.4096C17.7283 18.4096 18.1923 18.2177 18.5344 17.8761C18.8765 17.5346 19.0687 17.0713 19.0687 16.5883V2.01773C19.0687 1.53469 18.8765 1.07143 18.5344 0.729869C18.1923 0.388306 17.7283 0.196417 17.2444 0.196417Z" fill="#F2EFEB"/>
</g>
</svg>
