<svg width="13" height="15" viewBox="0 0 13 15" fill="none" xmlns="http://www.w3.org/2000/svg">
<g id="play">
<path id="Vector" d="M0.076294 13.322V1.28669C0.0762338 1.08535 0.129756 0.887562 0.231456 0.713293C0.333156 0.539025 0.479433 0.394446 0.655518 0.294155C0.831602 0.193865 1.03126 0.141413 1.23433 0.142096C1.4374 0.14278 1.63669 0.196574 1.81209 0.298048L12.2165 6.31684C12.3906 6.41765 12.535 6.56192 12.6353 6.73527C12.7357 6.90863 12.7885 7.10502 12.7885 7.30491C12.7885 7.50479 12.7357 7.70119 12.6353 7.87454C12.535 8.0479 12.3906 8.19216 12.2165 8.29298L1.81209 14.3106C1.63669 14.4121 1.4374 14.4659 1.23433 14.4666C1.03126 14.4673 0.831602 14.4148 0.655518 14.3145C0.479433 14.2142 0.333156 14.0696 0.231456 13.8954C0.129756 13.7211 0.0762338 13.5233 0.076294 13.322Z" fill="#F2EFEB"/>
</g>
</svg>
